<?xml version="1.0" standalone="no"?>
<!DOCTYPE svg PUBLIC "-//W3C//DTD SVG 20010904//EN"
 "http://www.w3.org/TR/2001/REC-SVG-20010904/DTD/svg10.dtd">
<svg version="1.0" xmlns="http://www.w3.org/2000/svg"
 width="2304.000000pt" height="1844.000000pt" viewBox="0 0 2304.000000 1844.000000"
 preserveAspectRatio="xMidYMid meet">

<g transform="translate(0.000000,1844.000000) scale(0.100000,-0.100000)"
fill="#000000" stroke="none">
<path d="M11900 16032 c-34 -4 -69 -18 -170 -65 -180 -84 -638 -311 -764 -379
-72 -39 -153 -83 -181 -98 -115 -62 -425 -236 -500 -280 -44 -26 -136 -80
-205 -121 -69 -40 -151 -90 -182 -111 -31 -21 -60 -38 -63 -38 -10 0 -525
-350 -649 -441 -100 -74 -385 -295 -396 -308 -3 -4 -30 -26 -60 -51 -356 -288
-806 -758 -1024 -1070 -172 -247 -291 -458 -398 -705 -56 -130 -116 -296 -137
-380 -5 -22 -16 -65 -24 -95 -18 -64 -33 -164 -48 -310 -13 -119 -6 -514 10
-600 6 -30 15 -100 22 -155 6 -55 15 -125 20 -155 5 -30 13 -89 18 -130 5 -41
12 -87 16 -101 3 -14 10 -59 15 -100 23 -194 41 -341 50 -409 39 -283 39 -724
1 -940 -6 -30 -17 -91 -25 -135 -38 -209 -118 -454 -183 -557 -13 -21 -23 -40
-23 -43 0 -6 -81 -139 -89 -145 -3 -3 -18 -23 -32 -45 -14 -22 -53 -72 -85
-112 -32 -39 -85 -104 -116 -145 -32 -40 -72 -89 -90 -109 -18 -20 -49 -55
-68 -79 -19 -24 -47 -55 -61 -69 -14 -14 -75 -82 -135 -151 -60 -68 -137 -154
-170 -190 -34 -36 -81 -87 -104 -115 -44 -51 -69 -78 -250 -270 -183 -193
-239 -251 -515 -528 -356 -358 -700 -689 -865 -832 -30 -26 -84 -75 -120 -109
-36 -34 -90 -82 -120 -106 -30 -25 -64 -53 -75 -64 -48 -45 -392 -315 -522
-411 -413 -302 -615 -409 -820 -435 -122 -16 -134 -12 -523 167 -96 44 -136
62 -292 132 -24 10 -145 64 -270 120 -125 55 -230 101 -232 101 -3 0 -58 25
-123 56 -157 75 -527 242 -633 287 -118 50 -169 61 -252 54 -112 -10 -192 -67
-249 -179 -27 -54 -29 -64 -29 -183 0 -120 19 -245 41 -270 5 -5 9 -19 9 -31
0 -12 11 -47 25 -78 14 -31 25 -62 25 -68 0 -13 124 -266 168 -343 57 -98 144
-241 168 -272 13 -17 24 -35 24 -38 0 -6 37 -59 65 -92 6 -7 15 -18 21 -25 5
-7 13 -20 16 -28 5 -12 136 -191 165 -225 5 -5 22 -28 38 -50 16 -22 43 -56
60 -76 16 -20 53 -65 80 -100 51 -66 68 -86 106 -129 11 -14 38 -45 58 -70 20
-25 39 -47 42 -50 3 -3 44 -48 91 -102 261 -295 761 -781 998 -971 8 -7 85
-69 170 -137 85 -69 182 -145 215 -170 33 -24 62 -47 65 -50 17 -19 446 -320
455 -320 4 0 33 -18 65 -40 32 -22 62 -40 65 -40 4 0 26 -14 51 -31 67 -46
336 -182 449 -227 381 -153 639 -115 751 108 34 69 30 153 -13 265 -34 87 -86
212 -107 260 -8 17 -30 65 -50 108 -20 43 -36 81 -36 83 0 3 -19 44 -41 92
-23 48 -51 110 -64 137 -12 28 -34 76 -49 108 -14 32 -26 59 -26 62 0 2 -16
39 -36 82 -20 43 -43 94 -51 113 -9 19 -27 60 -40 90 -27 60 -42 93 -68 155
-9 22 -21 51 -27 65 -6 14 -14 32 -18 41 -4 8 -23 51 -41 95 -18 43 -43 95
-55 114 -12 19 -25 51 -28 71 l-7 37 43 -10 c23 -5 65 -26 93 -48 55 -42 120
-80 136 -80 6 0 23 -8 37 -18 86 -58 398 -177 574 -219 93 -22 364 -25 453 -4
285 65 523 211 785 482 75 77 173 188 184 207 5 9 24 31 43 49 18 19 41 46 50
61 10 15 33 44 52 64 19 21 41 48 50 60 8 13 33 46 56 74 22 28 54 68 70 89
36 48 110 139 135 168 11 12 43 52 72 88 226 281 542 611 717 749 24 19 60 49
80 66 57 49 202 157 287 215 44 29 81 55 84 59 8 10 128 90 135 90 4 0 19 8
33 19 81 57 396 215 532 266 122 46 235 79 380 112 110 24 420 24 510 -1 36
-9 80 -21 98 -26 18 -4 43 -15 57 -24 13 -9 28 -16 34 -16 22 0 151 -88 205
-139 92 -88 206 -260 206 -312 0 -10 4 -20 9 -24 5 -3 13 -20 17 -37 3 -18 10
-39 14 -48 37 -75 57 -383 28 -415 -7 -8 -35 -40 -63 -72 -88 -102 -180 -189
-302 -285 -137 -109 -288 -221 -354 -263 -26 -17 -80 -52 -120 -79 -41 -27
-90 -59 -109 -71 -19 -12 -67 -43 -107 -69 -40 -25 -75 -46 -78 -46 -3 0 -32
-17 -63 -37 -32 -21 -66 -44 -77 -51 -11 -6 -40 -25 -65 -41 -265 -173 -243
-160 -262 -143 -13 11 -18 30 -18 65 0 49 -23 194 -41 253 -5 17 -9 50 -9 75
0 24 -5 60 -11 79 -6 19 -15 80 -19 135 -14 171 -30 318 -40 368 -6 26 -10 94
-10 150 0 56 -4 118 -9 137 -5 19 -12 80 -16 135 -7 123 -9 129 -41 144 -35
16 -87 -1 -109 -35 -18 -28 -18 -17 4 -369 11 -187 31 -385 42 -421 5 -17 9
-48 9 -69 0 -49 29 -288 40 -335 8 -32 14 -68 39 -230 5 -30 14 -73 20 -95 6
-22 11 -68 11 -103 0 -61 -1 -64 -42 -100 -22 -20 -48 -44 -57 -52 -28 -28
-126 -142 -135 -159 -5 -9 -12 -18 -15 -21 -10 -8 -29 -42 -61 -110 -17 -36
-36 -73 -41 -82 -5 -10 -9 -67 -9 -128 0 -100 2 -114 26 -157 69 -124 234
-206 381 -189 114 13 215 32 248 46 11 5 43 16 70 25 99 33 237 100 361 177
195 122 315 224 524 445 87 92 152 169 193 227 15 22 42 59 58 81 54 73 82
118 157 255 37 67 98 190 116 235 9 22 20 47 24 55 5 8 16 42 26 75 10 33 22
67 26 75 4 8 14 49 24 90 9 41 21 91 26 110 17 64 33 174 39 275 7 108 14 125
89 228 111 152 214 332 286 502 10 22 21 49 26 60 5 11 11 40 14 66 3 26 20
69 40 102 l34 58 7 -30 c4 -17 11 -33 16 -36 5 -4 9 -32 9 -63 1 -31 5 -77 11
-102 5 -25 14 -72 19 -105 11 -72 34 -185 50 -240 6 -22 17 -65 25 -95 41
-171 114 -336 179 -402 66 -67 91 -78 176 -78 85 0 109 11 179 81 115 117 223
476 281 944 5 39 11 79 15 90 3 11 9 65 14 120 5 55 13 114 19 130 7 17 15 48
18 70 l7 40 9 -35 c6 -19 19 -60 30 -90 11 -30 23 -73 25 -95 3 -22 9 -44 13
-50 4 -5 11 -27 14 -49 4 -21 11 -46 17 -55 5 -9 27 -56 49 -105 86 -190 244
-381 387 -465 297 -176 650 -115 953 166 159 148 312 408 380 648 78 273 105
473 97 720 -6 196 -19 329 -42 435 -9 41 -20 95 -26 120 -8 38 -6 49 11 72 11
15 20 30 20 33 0 4 26 37 55 69 6 6 44 65 86 131 92 146 163 285 224 436 25
63 50 123 55 134 19 44 40 120 40 145 0 14 4 30 9 36 6 5 21 42 34 83 l24 74
6 -59 c4 -32 13 -85 22 -117 8 -32 15 -81 15 -110 0 -29 9 -119 21 -202 11
-82 27 -195 34 -250 24 -175 33 -230 39 -245 3 -8 10 -64 16 -125 6 -60 14
-141 19 -180 5 -38 15 -110 21 -160 6 -49 22 -171 35 -270 13 -99 32 -238 42
-310 14 -108 21 -133 39 -152 29 -29 93 -32 116 -5 36 41 41 62 30 136 -6 39
-18 125 -27 191 -26 202 -36 276 -50 375 -19 126 -23 161 -34 250 -13 116 -32
250 -41 305 -7 43 -24 159 -45 320 -3 22 -10 81 -16 130 -5 50 -14 103 -19
119 -6 16 -10 52 -10 80 0 51 -23 223 -41 304 -5 23 -9 79 -9 125 -1 45 -7
109 -15 142 -15 60 -21 278 -9 309 3 9 10 16 15 16 11 0 69 -57 69 -68 0 -5
22 -33 48 -63 55 -62 212 -265 212 -274 0 -3 5 -11 10 -18 6 -7 32 -42 58 -78
61 -85 161 -221 206 -281 20 -25 36 -51 36 -56 0 -6 4 -12 8 -14 5 -1 35 -39
68 -83 32 -44 64 -87 71 -95 6 -8 58 -76 114 -150 297 -392 553 -638 711 -685
147 -43 256 22 304 183 20 67 23 296 5 421 -5 42 -17 128 -26 191 -21 153 -35
237 -46 282 -5 20 -14 69 -20 110 -13 97 -23 160 -38 238 -7 36 -17 90 -22
120 -6 30 -17 81 -25 112 -8 32 -14 75 -14 97 0 21 -6 69 -14 107 -18 87 -31
167 -51 319 -9 66 -20 143 -25 170 -5 28 -12 86 -14 130 -3 44 -10 130 -17
190 -11 115 -6 304 12 415 32 202 111 346 269 496 100 95 118 110 235 189 55
37 109 76 120 86 28 25 73 35 80 18 8 -22 25 -135 35 -239 6 -52 17 -142 26
-200 8 -58 17 -123 20 -145 11 -102 36 -284 44 -325 5 -25 12 -76 15 -115 4
-38 10 -88 15 -110 5 -22 16 -85 25 -140 9 -55 23 -131 31 -170 8 -38 22 -104
30 -145 27 -135 31 -154 44 -210 7 -30 16 -64 20 -75 7 -19 16 -51 56 -190 9
-33 20 -64 25 -69 5 -6 9 -18 9 -27 0 -17 55 -143 103 -237 12 -24 45 -72 74
-107 92 -112 222 -152 344 -106 109 41 227 134 320 253 19 23 44 54 56 68 24
28 84 113 146 208 40 61 42 63 52 40 20 -47 57 -88 103 -115 43 -26 55 -28
152 -28 111 1 131 6 286 76 220 99 520 390 688 668 49 81 122 240 138 301 46
175 55 273 34 381 -9 46 -20 93 -25 104 -5 11 -17 38 -26 60 -10 22 -33 64
-52 93 l-34 53 20 25 c11 14 84 94 163 177 188 200 280 297 298 317 8 9 45 48
81 86 36 38 94 101 129 139 62 69 162 177 264 285 29 30 135 143 235 250 375
399 726 711 949 843 31 19 93 56 137 83 260 161 532 243 655 200 97 -34 145
-15 138 56 -4 41 -36 63 -120 85 -124 32 -315 -8 -535 -112 -232 -110 -518
-304 -788 -535 -175 -150 -520 -498 -811 -820 -61 -67 -68 -75 -179 -192 -49
-52 -142 -150 -205 -218 -63 -68 -133 -143 -155 -166 -22 -23 -92 -97 -155
-165 -130 -139 -228 -239 -234 -239 -3 0 -34 14 -70 30 -107 50 -227 83 -366
101 -41 6 -259 14 -485 18 -430 9 -462 13 -550 59 -52 28 -75 48 -112 100 -26
35 -32 55 -37 120 -13 157 6 240 98 432 48 100 57 115 93 167 13 17 23 35 23
39 0 10 97 141 159 214 66 78 168 180 236 236 102 84 325 214 368 214 9 0 19
5 22 10 10 16 217 12 256 -5 62 -27 102 -73 130 -146 36 -98 26 -351 -19 -470
-8 -19 -6 -34 5 -57 30 -62 102 -51 135 20 54 114 81 316 59 443 -25 142 -82
243 -174 312 -80 58 -164 83 -283 83 -175 0 -328 -61 -548 -218 -241 -172
-465 -446 -632 -772 -24 -47 -44 -92 -44 -100 0 -9 -4 -20 -8 -25 -5 -6 -16
-39 -26 -75 -10 -36 -23 -83 -29 -105 -19 -65 -15 -261 6 -320 26 -71 59 -125
109 -175 83 -83 150 -113 333 -152 28 -5 246 -14 485 -18 239 -4 458 -12 485
-18 185 -40 245 -64 245 -101 0 -11 -17 -33 -39 -50 -21 -17 -77 -75 -124
-128 -47 -54 -100 -114 -117 -133 -17 -19 -79 -91 -138 -160 -59 -69 -109
-127 -112 -130 -6 -6 -104 -119 -141 -164 -13 -16 -29 -34 -34 -40 -58 -63
-200 -266 -276 -394 -217 -365 -424 -629 -554 -706 -160 -96 -254 -40 -370
219 -48 106 -78 199 -130 405 -9 36 -20 79 -25 95 -8 28 -28 122 -50 240 -5
28 -16 86 -25 130 -8 44 -19 103 -25 130 -11 60 -30 179 -40 255 -5 30 -15
100 -25 155 -9 55 -20 134 -25 175 -5 41 -16 127 -25 190 -8 63 -19 156 -24
205 -5 50 -14 114 -20 144 -6 29 -11 75 -11 101 0 85 -35 152 -87 165 -34 8
-133 -39 -293 -140 -172 -107 -308 -214 -406 -318 -148 -158 -217 -288 -255
-482 -31 -156 -28 -566 6 -820 9 -66 18 -138 21 -160 6 -52 49 -299 76 -440
11 -60 24 -139 29 -175 4 -36 15 -101 24 -145 9 -44 20 -111 25 -148 5 -37 11
-76 15 -86 5 -18 13 -68 40 -261 8 -58 19 -134 25 -170 20 -125 31 -286 28
-396 -2 -93 -6 -115 -22 -133 -49 -54 -135 -5 -326 188 -80 81 -190 203 -245
271 -55 69 -102 127 -106 130 -3 3 -71 93 -152 200 -81 107 -150 200 -154 205
-9 10 -88 121 -169 235 -26 36 -74 104 -108 151 -196 276 -312 411 -410 477
-50 34 -143 37 -177 6 -48 -42 -62 -98 -70 -274 -4 -91 -12 -185 -17 -210 -14
-63 -51 -215 -67 -275 -8 -27 -21 -77 -30 -110 -9 -33 -20 -68 -26 -77 -5 -10
-9 -26 -9 -37 0 -20 -15 -61 -64 -173 -9 -20 -16 -40 -16 -44 0 -5 -12 -34
-27 -64 -14 -30 -29 -62 -33 -70 -6 -14 -49 -92 -90 -165 -10 -16 -39 -65 -66
-108 -27 -43 -54 -87 -59 -96 -6 -10 -25 -35 -43 -55 -28 -32 -34 -35 -52 -24
-11 7 -20 23 -20 36 0 54 -165 307 -267 409 -173 174 -370 247 -603 222 -198
-20 -383 -112 -535 -266 -44 -45 -84 -87 -90 -95 -5 -7 -22 -29 -36 -48 -30
-40 -109 -202 -109 -222 0 -8 -4 -18 -9 -24 -15 -16 -41 -145 -50 -249 -6 -66
-13 -101 -22 -104 -7 -2 -25 -17 -39 -33 -25 -27 -47 -109 -64 -238 -3 -19
-12 -75 -20 -125 -9 -49 -20 -121 -26 -160 -5 -38 -16 -106 -25 -150 -8 -44
-19 -123 -25 -175 -5 -52 -17 -142 -25 -200 -9 -58 -20 -139 -25 -180 -5 -41
-13 -97 -18 -125 -6 -27 -16 -84 -22 -125 -7 -41 -21 -120 -32 -175 -11 -55
-26 -129 -33 -165 -17 -83 -56 -216 -89 -304 -76 -199 -154 -254 -238 -166
-21 23 -38 46 -38 53 0 7 -6 23 -13 37 -12 23 -41 113 -81 247 -9 28 -16 63
-16 77 0 14 -4 28 -10 31 -5 3 -10 20 -10 36 0 16 -7 46 -15 66 -8 19 -15 50
-15 69 0 18 -7 59 -15 91 -8 31 -15 79 -15 105 0 26 -4 67 -10 90 -11 52 -31
201 -41 318 -4 47 -15 159 -24 250 -9 91 -20 246 -25 345 -5 99 -13 239 -19
310 -6 72 -10 167 -11 212 0 76 -2 83 -26 102 -53 41 -125 17 -141 -47 -3 -13
0 -123 6 -245 6 -122 15 -294 20 -382 4 -88 12 -182 16 -208 8 -50 -11 -297
-25 -332 -13 -33 -40 -173 -40 -209 0 -19 -7 -47 -15 -62 -8 -16 -15 -37 -15
-46 0 -9 -4 -20 -10 -23 -5 -3 -10 -14 -10 -23 0 -9 -11 -39 -24 -67 -118
-246 -161 -332 -173 -346 -7 -9 -26 -40 -41 -70 -16 -30 -39 -66 -52 -80 l-24
-27 -18 34 c-11 21 -18 55 -18 88 0 30 -4 58 -10 61 -5 3 -10 18 -10 33 0 32
-32 128 -66 195 -8 16 -14 33 -14 39 0 25 -138 213 -196 267 -194 182 -457
280 -747 281 -269 0 -628 -98 -972 -267 -120 -59 -265 -137 -320 -172 -22 -14
-48 -30 -57 -36 -272 -162 -792 -607 -1018 -870 -38 -44 -103 -120 -145 -170
-43 -49 -109 -133 -148 -185 -39 -52 -93 -122 -119 -155 -59 -73 -51 -63 -123
-160 -32 -44 -61 -82 -65 -85 -3 -3 -26 -32 -50 -65 -24 -33 -50 -66 -58 -74
-7 -8 -38 -45 -68 -82 -87 -109 -280 -305 -389 -394 -123 -100 -170 -132 -260
-175 -118 -56 -130 -59 -307 -99 -61 -14 -222 -14 -290 0 -152 31 -351 95
-497 161 -61 27 -263 128 -276 138 -13 10 -115 66 -188 103 -32 16 -64 39 -72
51 -20 28 -20 215 0 271 8 22 15 46 15 53 1 67 303 557 495 801 17 21 55 71
85 110 30 40 70 89 87 109 18 20 33 41 33 45 0 5 21 30 46 57 26 27 53 60 62
72 8 13 47 57 86 98 135 144 202 215 270 290 256 277 496 520 1047 1060 170
167 361 346 450 422 77 65 270 236 368 326 174 158 704 562 739 562 4 0 23 13
42 28 40 32 116 78 175 105 133 62 377 143 475 158 30 5 78 14 105 19 126 27
270 34 690 34 245 -1 504 -6 585 -12 219 -18 364 -31 475 -42 243 -25 314 -30
541 -36 216 -6 254 -4 370 15 153 25 228 39 269 51 17 5 50 14 75 20 25 7 53
16 62 21 10 5 24 9 32 9 15 0 145 49 188 71 10 5 22 9 28 9 6 0 50 18 98 41
285 134 415 211 692 411 211 152 350 271 583 498 160 155 467 485 491 529 5 9
12 18 16 21 12 9 223 275 290 365 61 82 156 218 218 310 15 22 29 42 33 45 12
11 148 217 160 243 7 15 15 27 19 27 4 0 10 8 14 18 6 19 27 54 37 62 4 3 15
21 26 40 16 29 64 108 120 196 7 10 34 53 59 94 25 41 50 82 55 90 22 36 145
250 174 305 17 33 46 84 63 113 39 65 88 155 158 288 29 56 57 110 63 120 50
90 284 580 328 686 30 75 29 97 -8 144 -16 22 -348 360 -737 752 -389 393
-710 719 -714 725 -9 15 24 50 86 90 28 17 58 37 66 44 8 7 44 35 80 63 271
213 521 493 668 745 66 115 137 296 149 382 7 50 -14 83 -52 83 -39 0 -62 -31
-95 -130 -79 -231 -193 -421 -380 -635 -125 -144 -372 -364 -538 -479 -72 -51
-85 -56 -99 -45 -24 20 -186 183 -838 843 -319 323 -688 697 -820 831 -241
243 -256 255 -315 247z m432 -544 c593 -598 1337 -1344 1378 -1382 52 -47 73
-83 57 -96 -42 -36 -429 -214 -492 -226 l-34 -6 16 59 c21 79 29 275 12 328
-7 22 -30 77 -51 123 -67 142 -204 256 -373 307 -78 23 -243 20 -330 -7 -161
-50 -288 -154 -361 -295 -54 -102 -67 -166 -61 -278 7 -116 14 -149 43 -212
13 -28 24 -55 24 -60 0 -11 104 -141 138 -170 34 -31 174 -124 228 -151 21
-11 65 -28 97 -38 58 -18 61 -21 51 -47 -5 -14 -10 -14 -47 0 -26 10 -89 18
-169 21 -145 5 -207 -9 -320 -74 -79 -45 -195 -166 -238 -246 -88 -165 -91
-373 -9 -523 15 -27 35 -65 44 -82 27 -51 144 -155 220 -195 100 -52 164 -68
271 -68 110 0 183 17 281 65 142 70 262 206 295 335 31 120 41 162 48 220 5
36 9 76 10 90 1 24 1 24 12 5 6 -11 24 -35 40 -53 15 -18 28 -42 28 -52 0 -11
5 -20 10 -20 6 0 10 -6 10 -14 0 -24 120 -145 183 -183 102 -63 175 -82 301
-83 60 0 126 5 145 11 65 21 175 70 201 90 40 32 140 131 140 139 0 5 15 30
33 58 106 156 108 394 7 590 -108 209 -383 332 -618 277 -115 -27 -232 -106
-232 -157 0 -55 69 -76 111 -34 24 24 67 45 128 65 41 13 224 15 249 2 9 -5
34 -16 54 -25 62 -27 133 -91 180 -163 68 -104 73 -122 72 -263 l0 -125 -39
-75 c-91 -173 -245 -270 -430 -270 -120 0 -253 57 -331 142 -45 49 -101 130
-108 158 -4 14 -11 34 -16 45 -19 43 -42 257 -35 329 4 39 10 76 14 81 3 6 11
36 17 68 13 69 0 97 -45 97 -38 0 -53 -20 -96 -130 -21 -52 -48 -117 -61 -144
-13 -28 -24 -58 -24 -69 0 -10 -5 -27 -10 -37 -6 -11 -14 -106 -19 -212 -11
-238 -28 -326 -78 -395 -13 -17 -23 -35 -23 -40 0 -13 -91 -103 -135 -132 -59
-40 -138 -62 -241 -68 -76 -5 -101 -2 -149 15 -135 49 -244 144 -304 267 -34
68 -35 73 -34 190 0 91 4 127 17 150 9 17 16 33 16 37 0 18 72 117 112 154 54
51 136 103 186 117 20 6 80 11 132 11 101 1 161 -13 257 -60 28 -14 62 -24 75
-22 22 3 23 8 28 100 6 113 11 120 100 138 30 6 67 14 82 17 61 12 75 75 24
103 -20 10 -37 11 -82 1 -78 -15 -199 -14 -254 3 -197 62 -366 206 -418 356
-34 103 -32 245 5 330 48 107 179 239 255 255 18 4 39 11 48 15 26 13 109 30
143 30 40 -1 130 -22 179 -43 98 -41 189 -127 237 -222 45 -90 54 -132 48
-221 -9 -120 -16 -154 -48 -220 -33 -70 -27 -67 -184 -94 -130 -22 -144 -27
-147 -49 -3 -37 4 -67 19 -78 55 -42 347 17 603 123 78 31 311 146 399 195
l74 42 310 -314 c1207 -1221 1160 -1172 1151 -1201 -6 -20 -179 -385 -205
-431 -6 -10 -28 -55 -50 -100 -22 -45 -46 -91 -52 -102 -32 -58 -84 -157 -97
-185 -6 -13 -43 -80 -90 -165 -9 -16 -33 -59 -52 -95 -19 -36 -44 -81 -55
-100 -11 -19 -35 -62 -53 -95 -18 -33 -48 -84 -66 -113 -19 -29 -34 -54 -34
-57 0 -18 -434 -709 -477 -760 -5 -5 -12 -17 -15 -25 -6 -14 -249 -349 -378
-521 -148 -197 -457 -548 -669 -756 -75 -75 -118 -115 -297 -275 -156 -139
-447 -349 -624 -450 -19 -11 -46 -28 -60 -38 -30 -21 -225 -115 -336 -163 -77
-34 -138 -55 -284 -98 -63 -19 -83 -24 -200 -49 -266 -55 -510 -61 -930 -19
-154 15 -306 28 -455 39 -77 5 -198 15 -270 21 -208 17 -723 23 -849 10 -155
-16 -367 -47 -426 -62 -45 -11 -154 -38 -202 -50 -33 -8 -81 -24 -143 -49
-181 -71 -468 -241 -675 -399 -74 -56 -325 -258 -356 -286 -7 -5 -74 -64 -150
-130 -76 -66 -168 -147 -204 -181 -36 -33 -81 -74 -100 -90 -19 -16 -53 -47
-75 -69 -22 -22 -63 -60 -90 -84 -245 -218 -931 -893 -1242 -1221 -54 -58
-133 -141 -175 -185 -42 -44 -95 -102 -118 -130 -23 -27 -52 -59 -64 -71 -11
-12 -41 -45 -65 -74 -25 -29 -50 -58 -56 -64 -21 -22 -131 -152 -160 -191 -16
-21 -66 -84 -110 -140 -44 -56 -84 -109 -90 -117 -5 -9 -36 -51 -69 -93 -66
-89 -186 -263 -186 -272 0 -3 -11 -21 -25 -39 -14 -18 -25 -36 -25 -39 0 -4
-10 -21 -22 -38 -13 -18 -28 -42 -35 -54 -109 -207 -136 -285 -154 -444 -12
-106 -2 -244 21 -288 7 -14 18 -41 50 -126 44 -116 44 -115 72 -170 29 -57 68
-146 68 -155 0 -5 12 -35 26 -67 30 -68 47 -108 61 -143 6 -14 28 -63 50 -110
53 -111 73 -157 73 -165 0 -7 60 -138 85 -188 8 -16 15 -33 15 -38 0 -5 18
-48 41 -96 22 -49 44 -97 49 -108 5 -11 23 -51 40 -90 17 -38 36 -80 41 -92 5
-13 13 -33 18 -45 5 -13 24 -54 41 -93 17 -38 35 -79 40 -90 4 -11 15 -36 24
-57 9 -20 16 -44 16 -53 0 -10 5 -35 12 -57 9 -29 9 -41 0 -50 -7 -7 -12 -20
-12 -29 0 -29 -59 -76 -118 -95 -106 -33 -317 -4 -477 65 -150 65 -203 91
-293 143 -46 26 -86 48 -89 48 -4 0 -47 26 -97 59 -50 32 -110 68 -132 79 -23
12 -48 27 -55 35 -8 7 -52 39 -99 72 -201 140 -620 465 -765 594 -22 20 -65
56 -95 81 -161 133 -534 495 -725 704 -55 60 -116 127 -136 148 -20 20 -52 57
-72 80 -19 24 -47 57 -61 73 -114 129 -332 409 -498 639 -48 67 -95 132 -105
146 -39 54 -128 200 -171 280 -86 161 -162 315 -162 330 0 8 -7 24 -15 34 -8
11 -15 30 -15 42 0 13 -4 26 -10 29 -5 3 -10 15 -10 27 0 11 -6 34 -14 51 -30
66 -45 250 -25 312 19 60 55 113 88 130 18 9 56 15 92 15 81 0 117 -12 289
-92 47 -22 110 -51 140 -65 30 -14 82 -38 115 -53 122 -58 345 -160 350 -160
2 0 30 -12 62 -26 32 -14 72 -32 88 -39 65 -28 127 -54 215 -93 19 -8 71 -32
115 -52 100 -47 153 -71 235 -105 36 -15 88 -37 115 -50 83 -37 148 -67 185
-82 19 -8 60 -26 90 -40 123 -56 150 -63 244 -63 88 0 205 29 288 71 10 5 23
9 30 9 7 0 24 9 38 20 14 11 31 20 38 20 7 0 43 19 80 41 37 23 87 53 112 67
178 100 582 398 787 580 62 55 141 125 343 302 41 36 132 120 204 187 71 68
148 138 172 155 52 40 948 938 1094 1097 58 62 124 132 148 154 23 22 42 44
42 49 0 5 17 27 38 47 58 59 226 241 267 291 39 47 54 63 149 166 31 33 56 64
56 69 0 5 24 34 53 66 28 32 79 90 112 129 33 39 79 92 103 117 23 26 42 51
42 55 0 5 19 32 43 61 113 138 203 302 277 502 39 106 90 308 90 357 0 15 5
39 11 55 6 15 15 57 20 93 5 36 14 106 21 155 16 113 16 492 0 680 -18 217
-49 459 -104 825 -12 74 -24 167 -29 205 -4 39 -12 111 -17 160 -25 223 -35
371 -29 456 9 115 26 263 37 309 4 19 15 69 25 110 9 41 20 86 24 100 5 14 16
52 26 85 15 53 24 77 55 160 69 183 165 368 302 585 43 69 84 134 91 145 6 11
15 22 18 25 3 3 32 41 64 85 32 44 61 82 64 85 4 3 22 25 41 50 19 25 37 47
40 50 4 3 13 14 21 26 57 83 492 524 636 645 48 40 122 103 163 139 121 106
524 414 659 505 100 68 220 147 274 182 276 179 335 217 371 235 23 11 48 26
56 33 8 7 35 24 60 37 38 21 225 129 350 201 19 11 60 33 90 49 30 16 59 33
65 37 19 15 490 260 685 356 242 120 448 212 474 214 12 1 163 -145 428 -411z
m7133 -5445 c14 -15 25 -37 25 -48 0 -12 6 -27 13 -33 17 -18 16 -272 -2 -332
-59 -192 -109 -291 -232 -457 -163 -220 -425 -439 -593 -496 -64 -22 -174 -22
-204 -1 -47 32 -19 157 71 319 22 40 179 253 213 290 11 11 42 49 69 84 63 81
197 244 205 251 3 3 16 19 29 35 12 17 51 62 85 100 35 39 103 115 151 170 86
98 132 145 140 145 2 0 16 -12 30 -27z m-6430 -2498 c94 -40 125 -57 183 -100
134 -101 277 -317 340 -514 14 -42 2 -62 -93 -154 -184 -179 -330 -278 -540
-366 -112 -47 -351 -66 -460 -37 -115 30 -222 107 -263 188 -47 95 -56 137
-55 268 2 111 5 134 31 205 82 227 287 431 517 513 48 18 83 21 195 17 68 -2
119 -9 145 -20z m597 -901 c29 -109 35 -682 9 -759 -6 -16 -20 -73 -32 -125
-29 -131 -71 -252 -129 -373 -66 -133 -79 -155 -138 -235 -254 -339 -636 -429
-902 -213 -131 106 -238 260 -300 431 -7 19 -18 49 -25 65 -21 53 -38 109 -46
150 -5 22 -15 74 -24 115 -8 41 -20 120 -25 175 -5 55 -13 147 -18 205 -14
145 5 400 29 400 5 0 9 -4 9 -9 0 -5 16 -25 35 -44 19 -19 35 -38 35 -42 0
-29 160 -136 250 -167 136 -47 352 -46 515 3 201 60 466 223 648 400 46 45 85
75 90 70 5 -5 13 -26 19 -47z m-3485 -2577 c-8 -12 -17 -35 -20 -52 -8 -45
-28 -116 -42 -150 -7 -16 -18 -46 -25 -65 -20 -56 -115 -259 -148 -315 -9 -17
-30 -53 -46 -80 -45 -77 -172 -251 -252 -345 -88 -103 -262 -274 -364 -357
-127 -103 -336 -230 -462 -282 -16 -6 -40 -16 -55 -22 -54 -22 -68 -27 -118
-40 -55 -14 -244 -19 -287 -6 -60 16 -138 113 -138 170 0 61 52 181 117 266
26 35 58 79 71 98 50 73 101 60 102 -27 0 -48 25 -169 44 -208 17 -37 62 -56
97 -41 17 6 36 21 44 33 18 24 20 103 4 143 -6 15 -14 48 -19 73 -4 25 -16 70
-25 100 -30 97 -30 122 -1 149 61 58 306 221 511 341 44 25 103 63 131 83 28
20 54 37 58 37 11 0 369 246 436 301 14 11 38 30 54 42 16 12 38 30 50 40 96
82 137 119 183 165 30 28 60 52 67 52 8 0 20 7 27 17 12 14 14 9 17 -41 2 -38
-2 -66 -11 -79z"/>
<path d="M8105 12406 c-5 -2 -33 -11 -62 -20 -117 -36 -244 -134 -329 -252
-46 -65 -134 -238 -134 -266 0 -9 -4 -19 -9 -22 -5 -3 -11 -16 -14 -28 -3 -13
-13 -48 -22 -78 -64 -213 -92 -496 -75 -755 16 -228 27 -337 39 -368 6 -16 11
-42 11 -59 0 -18 4 -45 9 -62 6 -17 17 -62 26 -101 9 -38 20 -79 24 -90 5 -11
25 -72 45 -135 21 -63 46 -133 56 -155 10 -22 29 -65 42 -95 188 -444 596
-948 1018 -1259 47 -34 98 -72 113 -84 16 -12 47 -33 70 -46 23 -13 60 -36 82
-51 63 -42 361 -200 379 -200 3 0 25 -8 49 -19 23 -10 69 -29 102 -41 33 -12
69 -26 80 -30 27 -12 112 -40 153 -51 17 -5 49 -14 70 -19 115 -31 310 -68
432 -81 332 -35 697 -14 975 58 33 9 76 19 95 23 46 10 162 51 202 71 10 5 24
9 33 9 8 0 38 11 67 24 29 13 76 34 103 46 84 36 263 129 325 168 32 20 84 52
114 70 65 39 347 250 427 319 30 26 82 71 114 98 199 167 614 609 795 846 14
18 30 37 35 44 29 32 94 114 111 140 10 17 29 41 41 55 13 14 23 30 23 36 0 6
10 19 21 30 22 20 289 416 289 429 0 4 15 28 34 54 19 25 52 80 74 121 22 41
51 95 64 120 134 244 217 463 248 655 19 115 3 298 -32 365 -44 84 -133 157
-224 185 -65 20 -284 20 -384 0 -277 -54 -501 -147 -1030 -428 -101 -54 -208
-107 -214 -107 -3 0 -35 -14 -72 -31 -62 -29 -150 -63 -269 -105 -27 -9 -59
-20 -70 -25 -11 -4 -31 -10 -45 -14 -14 -3 -74 -19 -135 -35 -126 -33 -284
-63 -435 -82 -161 -20 -584 -17 -745 5 -263 37 -490 97 -672 178 -24 10 -46
19 -49 19 -10 0 -292 143 -353 179 -30 18 -130 87 -223 154 -93 67 -186 133
-208 148 -21 14 -78 54 -126 90 -273 201 -540 354 -734 420 -80 27 -113 33
-205 35 -60 2 -114 2 -120 0z m280 -152 c105 -34 291 -127 392 -196 23 -15 46
-28 52 -28 6 0 11 -4 11 -8 0 -4 15 -16 33 -26 35 -21 273 -186 467 -325 299
-215 447 -301 731 -429 168 -76 427 -146 694 -188 152 -24 693 -25 835 -1 52
9 124 21 160 27 198 33 530 133 715 215 17 7 50 21 75 32 25 10 151 71 280
137 462 233 561 280 670 321 25 9 54 20 65 25 187 75 454 110 583 76 109 -29
150 -73 182 -199 17 -64 -3 -263 -36 -365 -13 -40 -24 -79 -24 -86 0 -8 -6
-27 -14 -43 -8 -15 -19 -39 -24 -53 -31 -79 -95 -212 -127 -265 -14 -22 -35
-60 -48 -85 -13 -25 -38 -67 -55 -95 -17 -27 -41 -69 -53 -92 -12 -24 -26 -43
-31 -43 -4 0 -8 -5 -8 -12 0 -6 -11 -26 -25 -44 -14 -18 -25 -35 -25 -37 0 -3
-18 -31 -40 -63 -23 -33 -48 -70 -57 -84 -19 -28 -168 -235 -211 -291 -15 -20
-34 -47 -42 -59 -8 -13 -33 -44 -55 -70 -22 -26 -67 -80 -100 -121 -199 -246
-602 -664 -790 -819 -49 -41 -99 -83 -110 -93 -93 -85 -368 -276 -515 -360
-157 -90 -394 -193 -540 -237 -41 -12 -86 -26 -100 -30 -24 -8 -68 -18 -162
-39 -46 -11 -125 -23 -248 -40 -245 -34 -647 -12 -895 47 -22 6 -63 15 -91 20
-117 24 -425 135 -579 208 -172 83 -320 175 -529 332 -109 82 -305 252 -350
304 -16 18 -50 56 -76 83 -56 61 -187 224 -256 320 -99 139 -197 309 -272 475
-24 52 -48 99 -53 104 -5 6 -9 16 -9 24 0 8 -6 28 -14 45 -52 122 -122 381
-146 547 -48 331 -58 514 -35 657 32 204 44 268 59 323 8 30 20 73 26 95 6 22
15 49 19 60 5 11 16 38 26 60 81 197 207 340 350 398 67 27 223 23 320 -9z"/>
</g>
</svg>
