<svg width="3072" height="2459" viewBox="0 0 3072 2459" fill="none" xmlns="http://www.w3.org/2000/svg">
<path d="M1586.67 321.067C1582.13 321.6 1577.47 323.467 1564 329.733C1540 340.933 1478.93 371.2 1462.13 380.267C1452.53 385.467 1441.73 391.333 1438 393.333C1422.67 401.6 1381.33 424.8 1371.33 430.667C1365.47 434.133 1353.2 441.333 1344 446.8C1334.8 452.133 1323.87 458.8 1319.73 461.6C1315.6 464.4 1311.73 466.667 1311.33 466.667C1310 466.667 1241.33 513.333 1224.8 525.467C1211.47 535.333 1173.47 564.8 1172 566.533C1171.6 567.067 1168 570 1164 573.333C1116.53 611.733 1056.53 674.4 1027.47 716C1004.53 748.933 988.667 777.067 974.4 810C966.933 827.333 958.933 849.467 956.133 860.667C955.467 863.6 954 869.333 952.933 873.333C950.533 881.867 948.533 895.2 946.533 914.667C944.8 930.533 945.733 983.2 947.867 994.667C948.667 998.667 949.867 1008 950.8 1015.33C951.6 1022.67 952.8 1032 953.467 1036C954.133 1040 955.2 1047.87 955.867 1053.33C956.533 1058.8 957.467 1064.93 958 1066.8C958.4 1068.67 959.333 1074.67 960 1080.13C963.067 1106 965.467 1125.6 966.667 1134.67C971.867 1172.4 971.867 1231.2 966.8 1260C966 1264 964.533 1272.13 963.467 1278C958.4 1305.87 947.733 1338.53 939.067 1352.27C937.333 1355.07 936 1357.6 936 1358C936 1358.8 925.2 1376.53 924.133 1377.33C923.733 1377.73 921.733 1380.4 919.867 1383.33C918 1386.27 912.8 1392.93 908.533 1398.27C904.267 1403.47 897.2 1412.13 893.067 1417.6C888.8 1422.93 883.467 1429.47 881.067 1432.13C878.667 1434.8 874.533 1439.47 872 1442.67C869.467 1445.87 865.733 1450 863.867 1451.87C862 1453.73 853.867 1462.8 845.867 1472C837.867 1481.07 827.6 1492.53 823.2 1497.33C818.667 1502.13 812.4 1508.93 809.333 1512.67C803.467 1519.47 800.133 1523.07 776 1548.67C751.6 1574.4 744.133 1582.13 707.333 1619.07C659.867 1666.8 614 1710.93 592 1730C588 1733.47 580.8 1740 576 1744.53C571.2 1749.07 564 1755.47 560 1758.67C556 1762 551.467 1765.73 550 1767.2C543.6 1773.2 497.733 1809.2 480.4 1822C425.333 1862.27 398.4 1876.53 371.067 1880C354.8 1882.13 353.2 1881.6 301.333 1857.73C288.533 1851.87 283.2 1849.47 262.4 1840.13C259.2 1838.8 243.067 1831.6 226.4 1824.13C209.733 1816.8 195.733 1810.67 195.467 1810.67C195.067 1810.67 187.733 1807.33 179.067 1803.2C158.133 1793.2 108.8 1770.93 94.6667 1764.93C78.9333 1758.27 72.1333 1756.8 61.0667 1757.73C46.1333 1759.07 35.4667 1766.67 27.8667 1781.6C24.2667 1788.8 24 1790.13 24 1806C24 1822 26.5333 1838.67 29.4667 1842C30.1333 1842.67 30.6667 1844.53 30.6667 1846.13C30.6667 1847.73 32.1333 1852.4 34 1856.53C35.8667 1860.67 37.3333 1864.8 37.3333 1865.6C37.3333 1867.33 53.8667 1901.07 59.7333 1911.33C67.3333 1924.4 78.9333 1943.47 82.1333 1947.6C83.8667 1949.87 85.3333 1952.27 85.3333 1952.67C85.3333 1953.47 90.2667 1960.53 94 1964.93C94.8 1965.87 96 1967.33 96.8 1968.27C97.4667 1969.2 98.5333 1970.93 98.9333 1972C99.6 1973.6 117.067 1997.47 120.933 2002C121.6 2002.67 123.867 2005.73 126 2008.67C128.133 2011.6 131.733 2016.13 134 2018.8C136.133 2021.47 141.067 2027.47 144.667 2032.13C151.467 2040.93 153.733 2043.6 158.8 2049.33C160.267 2051.2 163.867 2055.33 166.533 2058.67C169.2 2062 171.733 2064.93 172.133 2065.33C172.533 2065.73 178 2071.73 184.267 2078.93C219.067 2118.27 285.733 2183.07 317.333 2208.4C318.4 2209.33 328.667 2217.6 340 2226.67C351.333 2235.87 364.267 2246 368.667 2249.33C373.067 2252.53 376.933 2255.6 377.333 2256C379.6 2258.53 436.8 2298.67 438 2298.67C438.533 2298.67 442.4 2301.07 446.667 2304C450.933 2306.93 454.933 2309.33 455.333 2309.33C455.867 2309.33 458.8 2311.2 462.133 2313.47C471.067 2319.6 506.933 2337.73 522 2343.73C572.8 2364.13 607.2 2359.07 622.133 2329.33C626.667 2320.13 626.133 2308.93 620.4 2294C615.867 2282.4 608.933 2265.73 606.133 2259.33C605.067 2257.07 602.133 2250.67 599.467 2244.93C596.8 2239.2 594.667 2234.13 594.667 2233.87C594.667 2233.47 592.133 2228 589.2 2221.6C586.133 2215.2 582.4 2206.93 580.667 2203.33C579.067 2199.6 576.133 2193.2 574.133 2188.93C572.267 2184.67 570.667 2181.07 570.667 2180.67C570.667 2180.4 568.533 2175.47 565.867 2169.73C563.2 2164 560.133 2157.2 559.067 2154.67C557.867 2152.13 555.467 2146.67 553.733 2142.67C550.133 2134.67 548.133 2130.27 544.667 2122C543.467 2119.07 541.867 2115.2 541.067 2113.33C540.267 2111.47 539.2 2109.07 538.667 2107.87C538.133 2106.8 535.6 2101.07 533.2 2095.2C530.8 2089.47 527.467 2082.53 525.867 2080C524.267 2077.47 522.533 2073.2 522.133 2070.53L521.2 2065.6L526.933 2066.93C530 2067.6 535.6 2070.4 539.333 2073.33C546.667 2078.93 555.333 2084 557.467 2084C558.267 2084 560.533 2085.07 562.4 2086.4C573.867 2094.13 615.467 2110 638.933 2115.6C651.333 2118.53 687.467 2118.93 699.333 2116.13C737.333 2107.47 769.067 2088 804 2051.87C814 2041.6 827.067 2026.8 828.533 2024.27C829.2 2023.07 831.733 2020.13 834.267 2017.73C836.667 2015.2 839.733 2011.6 840.933 2009.6C842.267 2007.6 845.333 2003.73 847.867 2001.07C850.4 1998.27 853.333 1994.67 854.533 1993.07C855.6 1991.33 858.933 1986.93 862 1983.2C864.933 1979.47 869.2 1974.13 871.333 1971.33C876.133 1964.93 886 1952.8 889.333 1948.93C890.8 1947.33 895.067 1942 898.933 1937.2C929.067 1899.73 971.2 1855.73 994.533 1837.33C997.733 1834.8 1002.53 1830.8 1005.2 1828.53C1012.8 1822 1032.13 1807.6 1043.47 1799.87C1049.33 1796 1054.27 1792.53 1054.67 1792C1055.73 1790.67 1071.73 1780 1072.67 1780C1073.2 1780 1075.2 1778.93 1077.07 1777.47C1087.87 1769.87 1129.87 1748.8 1148 1742C1164.27 1735.87 1179.33 1731.47 1198.67 1727.07C1213.33 1723.87 1254.67 1723.87 1266.67 1727.2C1271.47 1728.4 1277.33 1730 1279.73 1730.67C1282.13 1731.2 1285.47 1732.67 1287.33 1733.87C1289.07 1735.07 1291.07 1736 1291.87 1736C1294.8 1736 1312 1747.73 1319.2 1754.53C1331.47 1766.27 1346.67 1789.2 1346.67 1796.13C1346.67 1797.47 1347.2 1798.8 1347.87 1799.33C1348.53 1799.73 1349.6 1802 1350.13 1804.27C1350.53 1806.67 1351.47 1809.47 1352 1810.67C1356.93 1820.67 1359.6 1861.73 1355.73 1866C1354.8 1867.07 1351.07 1871.33 1347.33 1875.6C1335.6 1889.2 1323.33 1900.8 1307.07 1913.6C1288.8 1928.13 1268.67 1943.07 1259.87 1948.67C1256.4 1950.93 1249.2 1955.6 1243.87 1959.2C1238.4 1962.8 1231.87 1967.07 1229.33 1968.67C1226.8 1970.27 1220.4 1974.4 1215.07 1977.87C1209.73 1981.2 1205.07 1984 1204.67 1984C1204.27 1984 1200.4 1986.27 1196.27 1988.93C1192 1991.73 1187.47 1994.8 1186 1995.73C1184.53 1996.53 1180.67 1999.07 1177.33 2001.2C1142 2024.27 1144.93 2022.53 1142.4 2020.27C1140.67 2018.8 1140 2016.27 1140 2011.6C1140 2005.07 1136.93 1985.73 1134.53 1977.87C1133.87 1975.6 1133.33 1971.2 1133.33 1967.87C1133.33 1964.67 1132.67 1959.87 1131.87 1957.33C1131.07 1954.8 1129.87 1946.67 1129.33 1939.33C1127.47 1916.53 1125.33 1896.93 1124 1890.27C1123.2 1886.8 1122.67 1877.73 1122.67 1870.27C1122.67 1862.8 1122.13 1854.53 1121.47 1852C1120.8 1849.47 1119.87 1841.33 1119.33 1834C1118.4 1817.6 1118.13 1816.8 1113.87 1814.8C1109.2 1812.67 1102.27 1814.93 1099.33 1819.47C1096.93 1823.2 1096.93 1821.73 1099.87 1868.67C1101.33 1893.6 1104 1920 1105.47 1924.8C1106.13 1927.07 1106.67 1931.2 1106.67 1934C1106.67 1940.53 1110.53 1972.4 1112 1978.67C1113.07 1982.93 1113.87 1987.73 1117.2 2009.33C1117.87 2013.33 1119.07 2019.07 1119.87 2022C1120.67 2024.93 1121.33 2031.07 1121.33 2035.73C1121.33 2043.87 1121.2 2044.27 1115.73 2049.07C1112.8 2051.73 1109.33 2054.93 1108.13 2056C1104.4 2059.73 1091.33 2074.93 1090.13 2077.2C1089.47 2078.4 1088.53 2079.6 1088.13 2080C1086.8 2081.07 1084.27 2085.6 1080 2094.67C1077.73 2099.47 1075.2 2104.4 1074.53 2105.6C1073.87 2106.93 1073.33 2114.53 1073.33 2122.67C1073.33 2136 1073.6 2137.87 1076.8 2143.6C1086 2160.13 1108 2171.07 1127.6 2168.8C1142.8 2167.07 1156.27 2164.53 1160.67 2162.67C1162.13 2162 1166.4 2160.53 1170 2159.33C1183.2 2154.93 1201.6 2146 1218.13 2135.73C1244.13 2119.47 1260.13 2105.87 1288 2076.4C1299.6 2064.13 1308.27 2053.87 1313.73 2046.13C1315.73 2043.2 1319.33 2038.27 1321.47 2035.33C1328.67 2025.6 1332.4 2019.6 1342.4 2001.33C1347.33 1992.4 1355.47 1976 1357.87 1970C1359.07 1967.07 1360.53 1963.73 1361.07 1962.67C1361.73 1961.6 1363.2 1957.07 1364.53 1952.67C1365.87 1948.27 1367.47 1943.73 1368 1942.67C1368.53 1941.6 1369.87 1936.13 1371.2 1930.67C1372.4 1925.2 1374 1918.53 1374.67 1916C1376.93 1907.47 1379.07 1892.8 1379.87 1879.33C1380.8 1864.93 1381.73 1862.67 1391.73 1848.93C1406.53 1828.67 1420.27 1804.67 1429.87 1782C1431.2 1779.07 1432.67 1775.47 1433.33 1774C1434 1772.53 1434.8 1768.67 1435.2 1765.2C1435.6 1761.73 1437.87 1756 1440.53 1751.6L1445.07 1743.87L1446 1747.87C1446.53 1750.13 1447.47 1752.27 1448.13 1752.67C1448.8 1753.2 1449.33 1756.93 1449.33 1761.07C1449.47 1765.2 1450 1771.33 1450.8 1774.67C1451.47 1778 1452.67 1784.27 1453.33 1788.67C1454.8 1798.27 1457.87 1813.33 1460 1820.67C1460.8 1823.6 1462.27 1829.33 1463.33 1833.33C1468.8 1856.13 1478.53 1878.13 1487.2 1886.93C1496 1895.87 1499.33 1897.33 1510.67 1897.33C1522 1897.33 1525.2 1895.87 1534.53 1886.53C1549.87 1870.93 1564.27 1823.07 1572 1760.67C1572.67 1755.47 1573.47 1750.13 1574 1748.67C1574.4 1747.2 1575.2 1740 1575.87 1732.67C1576.53 1725.33 1577.6 1717.47 1578.4 1715.33C1579.33 1713.07 1580.4 1708.93 1580.8 1706L1581.73 1700.67L1582.93 1705.33C1583.73 1707.87 1585.47 1713.33 1586.93 1717.33C1588.4 1721.33 1590 1727.07 1590.27 1730C1590.67 1732.93 1591.47 1735.87 1592 1736.67C1592.53 1737.33 1593.47 1740.27 1593.87 1743.2C1594.4 1746 1595.33 1749.33 1596.13 1750.53C1596.8 1751.73 1599.73 1758 1602.67 1764.53C1614.13 1789.87 1635.2 1815.33 1654.27 1826.53C1693.87 1850 1740.93 1841.87 1781.33 1804.4C1802.53 1784.67 1822.93 1750 1832 1718C1842.4 1681.6 1846 1654.93 1844.93 1622C1844.13 1595.87 1842.4 1578.13 1839.33 1564C1838.13 1558.53 1836.67 1551.33 1835.87 1548C1834.8 1542.93 1835.07 1541.47 1837.33 1538.4C1838.8 1536.4 1840 1534.4 1840 1534C1840 1533.47 1843.47 1529.07 1847.33 1524.8C1848.13 1524 1853.2 1516.13 1858.8 1507.33C1871.07 1487.87 1880.53 1469.33 1888.67 1449.2C1892 1440.8 1895.33 1432.8 1896 1431.33C1898.53 1425.47 1901.33 1415.33 1901.33 1412C1901.33 1410.13 1901.87 1408 1902.53 1407.2C1903.33 1406.53 1905.33 1401.6 1907.07 1396.13L1910.27 1386.27L1911.07 1394.13C1911.6 1398.4 1912.8 1405.47 1914 1409.73C1915.07 1414 1916 1420.53 1916 1424.4C1916 1428.27 1917.2 1440.27 1918.8 1451.33C1920.27 1462.27 1922.4 1477.33 1923.33 1484.67C1926.53 1508 1927.73 1515.33 1928.53 1517.33C1928.93 1518.4 1929.87 1525.87 1930.67 1534C1931.47 1542 1932.53 1552.8 1933.2 1558C1933.87 1563.07 1935.2 1572.67 1936 1579.33C1936.8 1585.87 1938.93 1602.13 1940.67 1615.33C1942.4 1628.53 1944.93 1647.07 1946.27 1656.67C1948.13 1671.07 1949.07 1674.4 1951.47 1676.93C1955.33 1680.8 1963.87 1681.2 1966.93 1677.6C1971.73 1672.13 1972.4 1669.33 1970.93 1659.47C1970.13 1654.27 1968.53 1642.8 1967.33 1634C1963.87 1607.07 1962.53 1597.2 1960.67 1584C1958.13 1567.2 1957.6 1562.53 1956.13 1550.67C1954.4 1535.2 1951.87 1517.33 1950.67 1510C1949.73 1504.27 1947.47 1488.8 1944.67 1467.33C1944.27 1464.4 1943.33 1456.53 1942.53 1450C1941.87 1443.33 1940.67 1436.27 1940 1434.13C1939.2 1432 1938.67 1427.2 1938.67 1423.47C1938.67 1416.67 1935.6 1393.73 1933.2 1382.93C1932.53 1379.87 1932 1372.4 1932 1366.27C1931.87 1360.27 1931.07 1351.73 1930 1347.33C1928 1339.33 1927.2 1310.27 1928.8 1306.13C1929.2 1304.93 1930.13 1304 1930.8 1304C1932.27 1304 1940 1311.6 1940 1313.07C1940 1313.73 1942.93 1317.47 1946.4 1321.47C1953.73 1329.73 1974.67 1356.8 1974.67 1358C1974.67 1358.4 1975.33 1359.47 1976 1360.4C1976.8 1361.33 1980.27 1366 1983.73 1370.8C1991.87 1382.13 2005.2 1400.27 2011.2 1408.27C2013.87 1411.6 2016 1415.07 2016 1415.73C2016 1416.53 2016.53 1417.33 2017.07 1417.6C2017.73 1417.73 2021.73 1422.8 2026.13 1428.67C2030.4 1434.53 2034.67 1440.27 2035.6 1441.33C2036.4 1442.4 2043.33 1451.47 2050.8 1461.33C2090.4 1513.6 2124.53 1546.4 2145.6 1552.67C2165.2 1558.4 2179.73 1549.73 2186.13 1528.27C2188.8 1519.33 2189.2 1488.8 2186.8 1472.13C2186.13 1466.53 2184.53 1455.07 2183.33 1446.67C2180.53 1426.27 2178.67 1415.07 2177.2 1409.07C2176.53 1406.4 2175.33 1399.87 2174.53 1394.4C2172.8 1381.47 2171.47 1373.07 2169.47 1362.67C2168.53 1357.87 2167.2 1350.67 2166.53 1346.67C2165.73 1342.67 2164.27 1335.87 2163.2 1331.73C2162.13 1327.47 2161.33 1321.73 2161.33 1318.8C2161.33 1316 2160.53 1309.6 2159.47 1304.53C2157.07 1292.93 2155.33 1282.27 2152.67 1262C2151.47 1253.2 2150 1242.93 2149.33 1239.33C2148.67 1235.6 2147.73 1227.87 2147.47 1222C2147.07 1216.13 2146.13 1204.67 2145.2 1196.67C2143.73 1181.33 2144.4 1156.13 2146.8 1141.33C2151.07 1114.4 2161.6 1095.2 2182.67 1075.2C2196 1062.53 2198.4 1060.53 2214 1050C2221.33 1045.07 2228.53 1039.87 2230 1038.53C2233.73 1035.2 2239.73 1033.87 2240.67 1036.13C2241.73 1039.07 2244 1054.13 2245.33 1068C2246.13 1074.93 2247.6 1086.93 2248.8 1094.67C2249.87 1102.4 2251.07 1111.07 2251.47 1114C2252.93 1127.6 2256.27 1151.87 2257.33 1157.33C2258 1160.67 2258.93 1167.47 2259.33 1172.67C2259.87 1177.73 2260.67 1184.4 2261.33 1187.33C2262 1190.27 2263.47 1198.67 2264.67 1206C2265.87 1213.33 2267.73 1223.47 2268.8 1228.67C2269.87 1233.73 2271.73 1242.53 2272.8 1248C2276.4 1266 2276.93 1268.53 2278.67 1276C2279.6 1280 2280.8 1284.53 2281.33 1286C2282.27 1288.53 2283.47 1292.8 2288.8 1311.33C2290 1315.73 2291.47 1319.87 2292.13 1320.53C2292.8 1321.33 2293.33 1322.93 2293.33 1324.13C2293.33 1326.4 2300.67 1343.2 2307.07 1355.73C2308.67 1358.93 2313.07 1365.33 2316.93 1370C2329.2 1384.93 2346.53 1390.27 2362.8 1384.13C2377.33 1378.67 2393.07 1366.27 2405.47 1350.4C2408 1347.33 2411.33 1343.2 2412.93 1341.33C2416.13 1337.6 2424.13 1326.27 2432.4 1313.6C2437.73 1305.47 2438 1305.2 2439.33 1308.27C2442 1314.53 2446.93 1320 2453.07 1323.6C2458.8 1327.07 2460.4 1327.33 2473.33 1327.33C2488.13 1327.2 2490.8 1326.53 2511.47 1317.2C2540.8 1304 2580.8 1265.2 2603.2 1228.13C2609.73 1217.33 2619.47 1196.13 2621.6 1188C2627.73 1164.67 2628.93 1151.6 2626.13 1137.2C2624.93 1131.07 2623.47 1124.8 2622.8 1123.33C2622.13 1121.87 2620.53 1118.27 2619.33 1115.33C2618 1112.4 2614.93 1106.8 2612.4 1102.93L2607.87 1095.87L2610.53 1092.53C2612 1090.67 2621.73 1080 2632.27 1068.93C2657.33 1042.27 2669.6 1029.33 2672 1026.67C2673.07 1025.47 2678 1020.27 2682.8 1015.2C2687.6 1010.13 2695.33 1001.73 2700 996.667C2708.27 987.467 2721.6 973.067 2735.2 958.667C2739.07 954.667 2753.2 939.6 2766.53 925.333C2816.53 872.133 2863.33 830.533 2893.07 812.933C2897.2 810.4 2905.47 805.467 2911.33 801.867C2946 780.4 2982.27 769.467 2998.67 775.2C3011.6 779.733 3018 777.2 3017.07 767.733C3016.53 762.267 3012.27 759.333 3001.07 756.4C2984.53 752.133 2959.07 757.467 2929.73 771.333C2898.8 786 2860.67 811.867 2824.67 842.667C2801.33 862.667 2755.33 909.067 2716.53 952C2708.4 960.933 2707.47 962 2692.67 977.6C2686.13 984.533 2673.73 997.6 2665.33 1006.67C2656.93 1015.73 2647.6 1025.73 2644.67 1028.8C2641.73 1031.87 2632.4 1041.73 2624 1050.8C2606.67 1069.33 2593.6 1082.67 2592.8 1082.67C2592.4 1082.67 2588.27 1080.8 2583.47 1078.67C2569.2 1072 2553.2 1067.6 2534.67 1065.2C2529.2 1064.4 2500.13 1063.33 2470 1062.8C2412.67 1061.6 2408.4 1061.07 2396.67 1054.93C2389.73 1051.2 2386.67 1048.53 2381.73 1041.6C2378.27 1036.93 2377.47 1034.27 2376.8 1025.6C2375.07 1004.67 2377.6 993.6 2389.87 968C2396.27 954.667 2397.47 952.667 2402.27 945.733C2404 943.467 2405.33 941.067 2405.33 940.533C2405.33 939.2 2418.27 921.733 2426.53 912C2435.33 901.6 2448.93 888 2458 880.533C2471.6 869.333 2501.33 852 2507.07 852C2508.27 852 2509.6 851.333 2510 850.667C2511.33 848.533 2538.93 849.067 2544.13 851.333C2552.4 854.933 2557.73 861.067 2561.47 870.8C2566.27 883.867 2564.93 917.6 2558.93 933.467C2557.87 936 2558.13 938 2559.6 941.067C2563.6 949.333 2573.2 947.867 2577.6 938.4C2584.8 923.2 2588.4 896.267 2585.47 879.333C2582.13 860.4 2574.53 846.933 2562.27 837.733C2551.6 830 2540.4 826.667 2524.53 826.667C2501.2 826.667 2480.8 834.8 2451.47 855.733C2419.33 878.667 2389.47 915.2 2367.2 958.667C2364 964.933 2361.33 970.933 2361.33 972C2361.33 973.2 2360.8 974.667 2360.27 975.333C2359.6 976.133 2358.13 980.533 2356.8 985.333C2355.47 990.133 2353.73 996.4 2352.93 999.333C2350.4 1008 2350.93 1034.13 2353.73 1042C2357.2 1051.47 2361.6 1058.67 2368.27 1065.33C2379.33 1076.4 2388.27 1080.4 2412.67 1085.6C2416.4 1086.27 2445.47 1087.47 2477.33 1088C2509.2 1088.53 2538.4 1089.6 2542 1090.4C2566.67 1095.73 2574.67 1098.93 2574.67 1103.87C2574.67 1105.33 2572.4 1108.27 2569.47 1110.53C2566.67 1112.8 2559.2 1120.53 2552.93 1127.6C2546.67 1134.8 2539.6 1142.8 2537.33 1145.33C2535.07 1147.87 2526.8 1157.47 2518.93 1166.67C2511.07 1175.87 2504.4 1183.6 2504 1184C2503.2 1184.8 2490.13 1199.87 2485.2 1205.87C2483.47 1208 2481.33 1210.4 2480.67 1211.2C2472.93 1219.6 2454 1246.67 2443.87 1263.73C2414.93 1312.4 2387.33 1347.6 2370 1357.87C2348.67 1370.67 2336.13 1363.2 2320.67 1328.67C2314.27 1314.53 2310.27 1302.13 2303.33 1274.67C2302.13 1269.87 2300.67 1264.13 2300 1262C2298.93 1258.27 2296.27 1245.73 2293.33 1230C2292.67 1226.27 2291.2 1218.53 2290 1212.67C2288.93 1206.8 2287.47 1198.93 2286.67 1195.33C2285.2 1187.33 2282.67 1171.47 2281.33 1161.33C2280.67 1157.33 2279.33 1148 2278 1140.67C2276.8 1133.33 2275.33 1122.8 2274.67 1117.33C2274 1111.87 2272.53 1100.4 2271.33 1092C2270.27 1083.6 2268.8 1071.2 2268.13 1064.67C2267.47 1058 2266.27 1049.47 2265.47 1045.47C2264.67 1041.6 2264 1035.47 2264 1032C2264 1020.67 2259.33 1011.73 2252.4 1010C2247.87 1008.93 2234.67 1015.2 2213.33 1028.67C2190.4 1042.93 2172.27 1057.2 2159.2 1071.07C2139.47 1092.13 2130.27 1109.47 2125.2 1135.33C2121.07 1156.13 2121.47 1210.8 2126 1244.67C2127.2 1253.47 2128.4 1263.07 2128.8 1266C2129.6 1272.93 2135.33 1305.87 2138.93 1324.67C2140.4 1332.67 2142.13 1343.2 2142.8 1348C2143.33 1352.8 2144.8 1361.47 2146 1367.33C2147.2 1373.2 2148.67 1382.13 2149.33 1387.07C2150 1392 2150.8 1397.2 2151.33 1398.53C2152 1400.93 2153.07 1407.6 2156.67 1433.33C2157.73 1441.07 2159.2 1451.2 2160 1456C2162.67 1472.67 2164.13 1494.13 2163.73 1508.8C2163.47 1521.2 2162.93 1524.13 2160.8 1526.53C2154.27 1533.73 2142.8 1527.2 2117.33 1501.47C2106.67 1490.67 2092 1474.4 2084.67 1465.33C2077.33 1456.13 2071.07 1448.4 2070.53 1448C2070.13 1447.6 2061.07 1435.6 2050.27 1421.33C2039.47 1407.07 2030.27 1394.67 2029.73 1394C2028.53 1392.67 2018 1377.87 2007.2 1362.67C2003.73 1357.87 1997.33 1348.8 1992.8 1342.53C1966.67 1305.73 1951.2 1287.73 1938.13 1278.93C1931.47 1274.4 1919.07 1274 1914.53 1278.13C1908.13 1283.73 1906.27 1291.2 1905.2 1314.67C1904.67 1326.8 1903.6 1339.33 1902.93 1342.67C1901.07 1351.07 1896.13 1371.33 1894 1379.33C1892.93 1382.93 1891.2 1389.6 1890 1394C1888.8 1398.4 1887.33 1403.07 1886.53 1404.27C1885.87 1405.6 1885.33 1407.73 1885.33 1409.2C1885.33 1411.87 1883.33 1417.33 1876.8 1432.27C1875.6 1434.93 1874.67 1437.6 1874.67 1438.13C1874.67 1438.8 1873.07 1442.67 1871.07 1446.67C1869.2 1450.67 1867.2 1454.93 1866.67 1456C1865.87 1457.87 1860.13 1468.27 1854.67 1478C1853.33 1480.13 1849.47 1486.67 1845.87 1492.4C1842.27 1498.13 1838.67 1504 1838 1505.2C1837.2 1506.53 1834.67 1509.87 1832.27 1512.53C1828.53 1516.8 1827.73 1517.2 1825.33 1515.73C1823.87 1514.8 1822.67 1512.67 1822.67 1510.93C1822.67 1503.73 1800.67 1470 1787.07 1456.4C1764 1433.2 1737.73 1423.47 1706.67 1426.8C1680.27 1429.47 1655.6 1441.73 1635.33 1462.27C1629.47 1468.27 1624.13 1473.87 1623.33 1474.93C1622.67 1475.87 1620.4 1478.8 1618.53 1481.33C1614.53 1486.67 1604 1508.27 1604 1510.93C1604 1512 1603.47 1513.33 1602.8 1514.13C1600.8 1516.27 1597.33 1533.47 1596.13 1547.33C1595.33 1556.13 1594.4 1560.8 1593.2 1561.2C1592.27 1561.47 1589.87 1563.47 1588 1565.6C1584.67 1569.2 1581.73 1580.13 1579.47 1597.33C1579.07 1599.87 1577.87 1607.33 1576.8 1614C1575.6 1620.53 1574.13 1630.13 1573.33 1635.33C1572.67 1640.4 1571.2 1649.47 1570 1655.33C1568.93 1661.2 1567.47 1671.73 1566.67 1678.67C1566 1685.6 1564.4 1697.6 1563.33 1705.33C1562.13 1713.07 1560.67 1723.87 1560 1729.33C1559.33 1734.8 1558.27 1742.27 1557.6 1746C1556.8 1749.6 1555.47 1757.2 1554.67 1762.67C1553.73 1768.13 1551.87 1778.67 1550.4 1786C1548.93 1793.33 1546.93 1803.2 1546 1808C1543.73 1819.07 1538.53 1836.8 1534.13 1848.53C1524 1875.07 1513.6 1882.4 1502.4 1870.67C1499.6 1867.6 1497.33 1864.53 1497.33 1863.6C1497.33 1862.67 1496.53 1860.53 1495.6 1858.67C1494 1855.6 1490.13 1843.6 1484.8 1825.73C1483.6 1822 1482.67 1817.33 1482.67 1815.47C1482.67 1813.6 1482.13 1811.73 1481.33 1811.33C1480.67 1810.93 1480 1808.67 1480 1806.53C1480 1804.4 1479.07 1800.4 1478 1797.73C1476.93 1795.2 1476 1791.07 1476 1788.53C1476 1786.13 1475.07 1780.67 1474 1776.4C1472.93 1772.27 1472 1765.87 1472 1762.4C1472 1758.93 1471.47 1753.47 1470.67 1750.4C1469.2 1743.47 1466.53 1723.6 1465.2 1708C1464.67 1701.73 1463.2 1686.8 1462 1674.67C1460.8 1662.53 1459.33 1641.87 1458.67 1628.67C1458 1615.47 1456.93 1596.8 1456.13 1587.33C1455.33 1577.73 1454.8 1565.07 1454.67 1559.07C1454.67 1548.93 1454.4 1548 1451.2 1545.47C1444.13 1540 1434.53 1543.2 1432.4 1551.73C1432 1553.47 1432.4 1568.13 1433.2 1584.4C1434 1600.67 1435.2 1623.6 1435.87 1635.33C1436.4 1647.07 1437.47 1659.6 1438 1663.07C1439.07 1669.73 1436.53 1702.67 1434.67 1707.33C1432.93 1711.73 1429.33 1730.4 1429.33 1735.2C1429.33 1737.73 1428.4 1741.47 1427.33 1743.47C1426.27 1745.6 1425.33 1748.4 1425.33 1749.6C1425.33 1750.8 1424.8 1752.27 1424 1752.67C1423.33 1753.07 1422.67 1754.53 1422.67 1755.73C1422.67 1756.93 1421.2 1760.93 1419.47 1764.67C1403.73 1797.47 1398 1808.93 1396.4 1810.8C1395.47 1812 1392.93 1816.13 1390.93 1820.13C1388.8 1824.13 1385.73 1828.93 1384 1830.8L1380.8 1834.4L1378.4 1829.87C1376.93 1827.07 1376 1822.53 1376 1818.13C1376 1814.13 1375.47 1810.4 1374.67 1810C1374 1809.6 1373.33 1807.6 1373.33 1805.6C1373.33 1801.33 1369.07 1788.53 1364.53 1779.6C1363.47 1777.47 1362.67 1775.2 1362.67 1774.4C1362.67 1771.07 1344.27 1746 1336.53 1738.8C1310.67 1714.53 1275.6 1701.47 1236.93 1701.33C1201.07 1701.33 1153.2 1714.4 1107.33 1736.93C1091.33 1744.8 1072 1755.2 1064.67 1759.87C1061.73 1761.73 1058.27 1763.87 1057.07 1764.67C1020.8 1786.27 951.467 1845.6 921.333 1880.67C916.267 1886.53 907.6 1896.67 902 1903.33C896.267 1909.87 887.467 1921.07 882.267 1928C877.067 1934.93 869.867 1944.27 866.4 1948.67C858.533 1958.4 859.6 1957.07 850 1970C845.733 1975.87 841.867 1980.93 841.333 1981.33C840.933 1981.73 837.867 1985.6 834.667 1990C831.467 1994.4 828 1998.8 826.933 1999.87C826 2000.93 821.867 2005.87 817.867 2010.8C806.267 2025.33 780.533 2051.47 766 2063.33C749.6 2076.67 743.333 2080.93 731.333 2086.67C715.6 2094.13 714 2094.53 690.4 2099.87C682.267 2101.73 660.8 2101.73 651.733 2099.87C631.467 2095.73 604.933 2087.2 585.467 2078.4C577.333 2074.8 550.4 2061.33 548.667 2060C546.933 2058.67 533.333 2051.2 523.6 2046.27C519.333 2044.13 515.067 2041.07 514 2039.47C511.333 2035.73 511.333 2010.8 514 2003.33C515.067 2000.4 516 1997.2 516 1996.27C516.133 1987.33 556.4 1922 582 1889.47C584.267 1886.67 589.333 1880 593.333 1874.8C597.333 1869.47 602.667 1862.93 604.933 1860.27C607.333 1857.6 609.333 1854.8 609.333 1854.27C609.333 1853.6 612.133 1850.27 615.467 1846.67C618.933 1843.07 622.533 1838.67 623.733 1837.07C624.8 1835.33 630 1829.47 635.2 1824C653.2 1804.8 662.133 1795.33 671.2 1785.33C705.333 1748.4 737.333 1716 810.8 1644C833.467 1621.73 858.933 1597.87 870.8 1587.73C881.067 1579.07 906.8 1556.27 919.867 1544.27C943.067 1523.2 1013.73 1469.33 1018.4 1469.33C1018.93 1469.33 1021.47 1467.6 1024 1465.6C1029.33 1461.33 1039.47 1455.2 1047.33 1451.6C1065.07 1443.33 1097.6 1432.53 1110.67 1430.53C1114.67 1429.87 1121.07 1428.67 1124.67 1428C1141.47 1424.4 1160.67 1423.47 1216.67 1423.47C1249.33 1423.6 1283.87 1424.27 1294.67 1425.07C1323.87 1427.47 1343.2 1429.2 1358 1430.67C1390.4 1434 1399.87 1434.67 1430.13 1435.47C1458.93 1436.27 1464 1436 1479.47 1433.47C1499.87 1430.13 1509.87 1428.27 1515.33 1426.67C1517.6 1426 1522 1424.8 1525.33 1424C1528.67 1423.07 1532.4 1421.87 1533.6 1421.2C1534.93 1420.53 1536.8 1420 1537.87 1420C1539.87 1420 1557.2 1413.47 1562.93 1410.53C1564.27 1409.87 1565.87 1409.33 1566.67 1409.33C1567.47 1409.33 1573.33 1406.93 1579.73 1403.87C1617.73 1386 1635.07 1375.73 1672 1349.07C1700.13 1328.8 1718.67 1312.93 1749.73 1282.67C1771.07 1262 1812 1218 1815.2 1212.13C1815.87 1210.93 1816.8 1209.73 1817.33 1209.33C1818.93 1208.13 1847.07 1172.67 1856 1160.67C1864.13 1149.73 1876.8 1131.6 1885.07 1119.33C1887.07 1116.4 1888.93 1113.73 1889.47 1113.33C1891.07 1111.87 1909.2 1084.4 1910.8 1080.93C1911.73 1078.93 1912.8 1077.33 1913.33 1077.33C1913.87 1077.33 1914.67 1076.27 1915.2 1074.93C1916 1072.4 1918.8 1067.73 1920.13 1066.67C1920.67 1066.27 1922.13 1063.87 1923.6 1061.33C1925.73 1057.47 1932.13 1046.93 1939.6 1035.2C1940.53 1033.87 1944.13 1028.13 1947.47 1022.67C1950.8 1017.2 1954.13 1011.73 1954.8 1010.67C1957.73 1005.87 1974.13 977.333 1978 970C1980.27 965.6 1984.13 958.8 1986.4 954.933C1991.6 946.267 1998.13 934.267 2007.47 916.533C2011.33 909.067 2015.07 901.867 2015.87 900.533C2022.53 888.533 2053.73 823.2 2059.6 809.067C2063.6 799.067 2063.47 796.133 2058.53 789.867C2056.4 786.933 2012.13 741.867 1960.27 689.6C1908.4 637.2 1865.6 593.733 1865.07 592.933C1863.87 590.933 1868.27 586.267 1876.53 580.933C1880.27 578.667 1884.27 576 1885.33 575.067C1886.4 574.133 1891.2 570.4 1896 566.667C1932.13 538.267 1965.47 500.933 1985.07 467.333C1993.87 452 2003.33 427.867 2004.93 416.4C2005.87 409.733 2003.07 405.333 1998 405.333C1992.8 405.333 1989.73 409.467 1985.33 422.667C1974.8 453.467 1959.6 478.8 1934.67 507.333C1918 526.533 1885.07 555.867 1862.93 571.2C1853.33 578 1851.6 578.667 1849.73 577.2C1846.53 574.533 1824.93 552.8 1738 464.8C1695.47 421.733 1646.27 371.867 1628.67 354C1596.53 321.6 1594.53 320 1586.67 321.067ZM1644.27 393.6C1723.33 473.333 1822.53 572.8 1828 577.867C1834.93 584.133 1837.73 588.933 1835.6 590.667C1830 595.467 1778.4 619.2 1770 620.8L1765.47 621.6L1767.6 613.733C1770.4 603.2 1771.47 577.067 1769.2 570C1768.27 567.067 1765.2 559.733 1762.4 553.6C1753.47 534.667 1735.2 519.467 1712.67 512.667C1702.27 509.6 1680.27 510 1668.67 513.6C1647.2 520.267 1630.27 534.133 1620.53 552.933C1613.33 566.533 1611.6 575.067 1612.4 590C1613.33 605.467 1614.27 609.867 1618.13 618.267C1619.87 622 1621.33 625.6 1621.33 626.267C1621.33 627.733 1635.2 645.067 1639.73 648.933C1644.27 653.067 1662.93 665.467 1670.13 669.067C1672.93 670.533 1678.8 672.8 1683.07 674.133C1690.8 676.533 1691.2 676.933 1689.87 680.4C1689.2 682.267 1688.53 682.267 1683.6 680.4C1680.13 679.067 1671.73 678 1661.07 677.6C1641.73 676.933 1633.47 678.8 1618.4 687.467C1607.87 693.467 1592.4 709.6 1586.67 720.267C1574.93 742.267 1574.53 770 1585.47 790C1587.47 793.6 1590.13 798.667 1591.33 800.933C1594.93 807.733 1610.53 821.6 1620.67 826.933C1634 833.867 1642.53 836 1656.8 836C1671.47 836 1681.2 833.733 1694.27 827.333C1713.2 818 1729.2 799.867 1733.6 782.667C1737.73 766.667 1739.07 761.067 1740 753.333C1740.67 748.533 1741.2 743.2 1741.33 741.333C1741.47 738.133 1741.47 738.133 1742.93 740.667C1743.73 742.133 1746.13 745.333 1748.27 747.733C1750.27 750.133 1752 753.333 1752 754.667C1752 756.133 1752.67 757.333 1753.33 757.333C1754.13 757.333 1754.67 758.133 1754.67 759.2C1754.67 762.4 1770.67 778.533 1779.07 783.6C1792.67 792 1802.4 794.533 1819.2 794.667C1827.2 794.667 1836 794 1838.53 793.2C1847.2 790.4 1861.87 783.867 1865.33 781.2C1870.67 776.933 1884 763.733 1884 762.667C1884 762 1886 758.667 1888.4 754.933C1902.53 734.133 1902.8 702.4 1889.33 676.267C1874.93 648.4 1838.27 632 1806.93 639.333C1791.6 642.933 1776 653.467 1776 660.267C1776 667.6 1785.2 670.4 1790.8 664.8C1794 661.6 1799.73 658.8 1807.87 656.133C1813.33 654.4 1837.73 654.133 1841.07 655.867C1842.27 656.533 1845.6 658 1848.27 659.2C1856.53 662.8 1866 671.333 1872.27 680.933C1881.33 694.8 1882 697.2 1881.87 716V732.667L1876.67 742.667C1864.53 765.733 1844 778.667 1819.33 778.667C1803.33 778.667 1785.6 771.067 1775.2 759.733C1769.2 753.2 1761.73 742.4 1760.8 738.667C1760.27 736.8 1759.33 734.133 1758.67 732.667C1756.13 726.933 1753.07 698.4 1754 688.8C1754.53 683.6 1755.33 678.667 1755.87 678C1756.27 677.2 1757.33 673.2 1758.13 668.933C1759.87 659.733 1758.13 656 1752.13 656C1747.07 656 1745.07 658.667 1739.33 673.333C1736.53 680.267 1732.93 688.933 1731.2 692.533C1729.47 696.267 1728 700.267 1728 701.733C1728 703.067 1727.33 705.333 1726.67 706.667C1725.87 708.133 1724.8 720.8 1724.13 734.933C1722.67 766.667 1720.4 778.4 1713.73 787.6C1712 789.867 1710.67 792.267 1710.67 792.933C1710.67 794.667 1698.53 806.667 1692.67 810.533C1684.8 815.867 1674.27 818.8 1660.53 819.6C1650.4 820.267 1647.07 819.867 1640.67 817.6C1622.67 811.067 1608.13 798.4 1600.13 782C1595.6 772.933 1595.47 772.267 1595.6 756.667C1595.6 744.533 1596.13 739.733 1597.87 736.667C1599.07 734.4 1600 732.267 1600 731.733C1600 729.333 1609.6 716.133 1614.93 711.2C1622.13 704.4 1633.07 697.467 1639.73 695.6C1642.4 694.8 1650.4 694.133 1657.33 694.133C1670.8 694 1678.8 695.867 1691.6 702.133C1695.33 704 1699.87 705.333 1701.6 705.067C1704.53 704.667 1704.67 704 1705.33 691.733C1706.13 676.667 1706.8 675.733 1718.67 673.333C1722.67 672.533 1727.6 671.467 1729.6 671.067C1737.73 669.467 1739.6 661.067 1732.8 657.333C1730.13 656 1727.87 655.867 1721.87 657.2C1711.47 659.2 1695.33 659.067 1688 656.8C1661.73 648.533 1639.2 629.333 1632.27 609.333C1627.73 595.6 1628 576.667 1632.93 565.333C1639.33 551.067 1656.8 533.467 1666.93 531.333C1669.33 530.8 1672.13 529.867 1673.33 529.333C1676.8 527.6 1687.87 525.333 1692.4 525.333C1697.73 525.467 1709.73 528.267 1716.27 531.067C1729.33 536.533 1741.47 548 1747.87 560.667C1753.87 572.667 1755.07 578.267 1754.27 590.133C1753.07 606.133 1752.13 610.667 1747.87 619.467C1743.47 628.8 1744.27 628.4 1723.33 632C1706 634.933 1704.13 635.6 1703.73 638.533C1703.33 643.467 1704.27 647.467 1706.27 648.933C1713.6 654.533 1752.53 646.667 1786.67 632.533C1797.07 628.4 1828.13 613.067 1839.87 606.533L1849.73 600.933L1891.07 642.8C2052 805.6 2045.73 799.067 2044.53 802.933C2043.73 805.6 2020.67 854.267 2017.2 860.4C2016.4 861.733 2013.47 867.733 2010.53 873.733C2007.6 879.733 2004.4 885.867 2003.6 887.333C1999.33 895.067 1992.4 908.267 1990.67 912C1989.87 913.733 1984.93 922.667 1978.67 934C1977.47 936.133 1974.27 941.867 1971.73 946.667C1969.2 951.467 1965.87 957.467 1964.4 960C1962.93 962.533 1959.73 968.267 1957.33 972.667C1954.93 977.067 1950.93 983.867 1948.53 987.733C1946 991.6 1944 994.933 1944 995.333C1944 997.733 1886.13 1089.87 1880.4 1096.67C1879.73 1097.33 1878.8 1098.93 1878.4 1100C1877.6 1101.87 1845.2 1146.53 1828 1169.47C1808.27 1195.73 1767.07 1242.53 1738.8 1270.27C1728.8 1280.27 1723.07 1285.6 1699.2 1306.93C1678.4 1325.47 1639.6 1353.47 1616 1366.93C1613.47 1368.4 1609.87 1370.67 1608 1372C1604 1374.8 1578 1387.33 1563.2 1393.73C1552.93 1398.27 1544.8 1401.07 1525.33 1406.8C1516.93 1409.33 1514.27 1410 1498.67 1413.33C1463.2 1420.67 1430.67 1421.47 1374.67 1415.87C1354.13 1413.87 1333.87 1412.13 1314 1410.67C1303.73 1410 1287.6 1408.67 1278 1407.87C1250.27 1405.6 1181.6 1404.8 1164.8 1406.53C1144.13 1408.67 1115.87 1412.8 1108 1414.8C1102 1416.27 1087.47 1419.87 1081.07 1421.47C1076.67 1422.53 1070.27 1424.67 1062 1428C1037.87 1437.47 999.6 1460.13 972 1481.2C962.133 1488.67 928.667 1515.6 924.533 1519.33C923.6 1520 914.667 1527.87 904.533 1536.67C894.4 1545.47 882.133 1556.27 877.333 1560.8C872.533 1565.2 866.533 1570.67 864 1572.8C861.467 1574.93 856.933 1579.07 854 1582C851.067 1584.93 845.6 1590 842 1593.2C809.333 1622.27 717.867 1712.27 676.4 1756C669.2 1763.73 658.667 1774.8 653.067 1780.67C647.467 1786.53 640.4 1794.27 637.333 1798C634.267 1801.6 630.4 1805.87 628.8 1807.47C627.333 1809.07 623.333 1813.47 620.133 1817.33C616.8 1821.2 613.467 1825.07 612.667 1825.87C609.867 1828.8 595.2 1846.13 591.333 1851.33C589.2 1854.13 582.533 1862.53 576.667 1870C570.8 1877.47 565.467 1884.53 564.667 1885.6C564 1886.8 559.867 1892.4 555.467 1898C546.667 1909.87 530.667 1933.07 530.667 1934.27C530.667 1934.67 529.2 1937.07 527.333 1939.47C525.467 1941.87 524 1944.27 524 1944.67C524 1945.2 522.667 1947.47 521.067 1949.73C519.333 1952.13 517.333 1955.33 516.4 1956.93C501.867 1984.53 498.267 1994.93 495.867 2016.13C494.267 2030.27 495.6 2048.67 498.667 2054.53C499.6 2056.4 501.067 2060 505.333 2071.33C511.2 2086.8 511.2 2086.67 514.933 2094C518.8 2101.6 524 2113.47 524 2114.67C524 2115.33 525.6 2119.33 527.467 2123.6C531.467 2132.67 533.733 2138 535.6 2142.67C536.4 2144.53 539.333 2151.07 542.267 2157.33C549.333 2172.13 552 2178.27 552 2179.33C552 2180.27 560 2197.73 563.333 2204.4C564.4 2206.53 565.333 2208.8 565.333 2209.47C565.333 2210.13 567.733 2215.87 570.8 2222.27C573.733 2228.8 576.667 2235.2 577.333 2236.67C578 2238.13 580.4 2243.47 582.667 2248.67C584.933 2253.73 587.467 2259.33 588.133 2260.93C588.8 2262.67 589.867 2265.33 590.533 2266.93C591.2 2268.67 593.733 2274.13 596 2279.33C598.267 2284.4 600.667 2289.87 601.333 2291.33C601.867 2292.8 603.333 2296.13 604.533 2298.93C605.733 2301.6 606.667 2304.8 606.667 2306C606.667 2307.33 607.333 2310.67 608.267 2313.6C609.467 2317.47 609.467 2319.07 608.267 2320.27C607.333 2321.2 606.667 2322.93 606.667 2324.13C606.667 2328 598.8 2334.27 590.933 2336.8C576.8 2341.2 548.667 2337.33 527.333 2328.13C507.333 2319.47 500.267 2316 488.267 2309.07C482.133 2305.6 476.8 2302.67 476.4 2302.67C475.867 2302.67 470.133 2299.2 463.467 2294.8C456.8 2290.53 448.8 2285.73 445.867 2284.27C442.8 2282.67 439.467 2280.67 438.533 2279.6C437.467 2278.67 431.6 2274.4 425.333 2270C398.533 2251.33 342.667 2208 323.333 2190.8C320.4 2188.13 314.667 2183.33 310.667 2180C289.2 2162.27 239.467 2114 214 2086.13C206.667 2078.13 198.533 2069.2 195.867 2066.4C193.2 2063.73 188.933 2058.8 186.267 2055.73C183.733 2052.53 180 2048.13 178.133 2046C162.933 2028.8 133.867 1991.47 111.733 1960.8C105.333 1951.87 99.0667 1943.2 97.7333 1941.33C92.5333 1934.13 80.6667 1914.67 74.9333 1904C63.4667 1882.53 53.3333 1862 53.3333 1860C53.3333 1858.93 52.4 1856.8 51.3333 1855.47C50.2667 1854 49.3333 1851.47 49.3333 1849.87C49.3333 1848.13 48.8 1846.4 48 1846C47.3333 1845.6 46.6667 1844 46.6667 1842.4C46.6667 1840.93 45.8667 1837.87 44.8 1835.6C40.8 1826.8 38.8 1802.27 41.4667 1794C44 1786 48.8 1778.93 53.2 1776.67C55.6 1775.47 60.6667 1774.67 65.4667 1774.67C76.2667 1774.67 81.0667 1776.27 104 1786.93C110.267 1789.87 118.667 1793.73 122.667 1795.6C126.667 1797.47 133.6 1800.67 138 1802.67C154.267 1810.4 184 1824 184.667 1824C184.933 1824 188.667 1825.6 192.933 1827.47C197.2 1829.33 202.533 1831.73 204.667 1832.67C213.333 1836.4 221.6 1839.87 233.333 1845.07C235.867 1846.13 242.8 1849.33 248.667 1852C262 1858.27 269.067 1861.47 280 1866C284.8 1868 291.733 1870.93 295.333 1872.67C306.4 1877.6 315.067 1881.6 320 1883.6C322.533 1884.67 328 1887.07 332 1888.93C348.4 1896.4 352 1897.33 364.533 1897.33C376.267 1897.33 391.867 1893.47 402.933 1887.87C404.267 1887.2 406 1886.67 406.933 1886.67C407.867 1886.67 410.133 1885.47 412 1884C413.867 1882.53 416.133 1881.33 417.067 1881.33C418 1881.33 422.8 1878.8 427.733 1875.87C432.667 1872.8 439.333 1868.8 442.667 1866.93C466.4 1853.6 520.267 1813.87 547.6 1789.6C555.867 1782.27 566.4 1772.93 593.333 1749.33C598.8 1744.53 610.933 1733.33 620.533 1724.4C630 1715.33 640.267 1706 643.467 1703.73C650.4 1698.4 769.867 1578.67 789.333 1557.47C797.067 1549.2 805.867 1539.87 809.067 1536.93C812.133 1534 814.667 1531.07 814.667 1530.4C814.667 1529.73 816.933 1526.8 819.733 1524.13C827.467 1516.27 849.867 1492 855.333 1485.33C860.533 1479.07 862.533 1476.93 875.2 1463.2C879.333 1458.8 882.667 1454.67 882.667 1454C882.667 1453.33 885.867 1449.47 889.733 1445.2C893.467 1440.93 900.267 1433.2 904.667 1428C909.067 1422.8 915.2 1415.73 918.4 1412.4C921.467 1408.93 924 1405.6 924 1405.07C924 1404.4 926.533 1400.8 929.733 1396.93C944.8 1378.53 956.8 1356.67 966.667 1330C971.867 1315.87 978.667 1288.93 978.667 1282.4C978.667 1280.4 979.333 1277.2 980.133 1275.07C980.933 1273.07 982.133 1267.47 982.8 1262.67C983.467 1257.87 984.667 1248.53 985.6 1242C987.733 1226.93 987.733 1176.4 985.6 1151.33C983.2 1122.4 979.067 1090.13 971.733 1041.33C970.133 1031.47 968.533 1019.07 967.867 1014C967.333 1008.8 966.267 999.2 965.6 992.667C962.267 962.933 960.933 943.2 961.733 931.867C962.933 916.533 965.2 896.8 966.667 890.667C967.2 888.133 968.667 881.467 970 876C971.2 870.533 972.667 864.533 973.2 862.667C973.867 860.8 975.333 855.733 976.667 851.333C978.667 844.267 979.867 841.067 984 830C993.2 805.6 1006 780.933 1024.27 752C1030 742.8 1035.47 734.133 1036.4 732.667C1037.2 731.2 1038.4 729.733 1038.8 729.333C1039.2 728.933 1043.07 723.867 1047.33 718C1051.6 712.133 1055.47 707.067 1055.87 706.667C1056.4 706.267 1058.8 703.333 1061.33 700C1063.87 696.667 1066.27 693.733 1066.67 693.333C1067.2 692.933 1068.4 691.467 1069.47 689.867C1077.07 678.8 1135.07 620 1154.27 603.867C1160.67 598.533 1170.53 590.133 1176 585.333C1192.13 571.2 1245.87 530.133 1263.87 518C1277.2 508.933 1293.2 498.4 1300.4 493.733C1337.2 469.867 1345.07 464.8 1349.87 462.4C1352.93 460.933 1356.27 458.933 1357.33 458C1358.4 457.067 1362 454.8 1365.33 453.067C1370.4 450.267 1395.33 435.867 1412 426.267C1414.53 424.8 1420 421.867 1424 419.733C1428 417.6 1431.87 415.333 1432.67 414.8C1435.2 412.8 1498 380.133 1524 367.333C1556.27 351.333 1583.73 339.067 1587.2 338.8C1588.8 338.667 1608.93 358.133 1644.27 393.6ZM2595.33 1119.6C2597.2 1121.6 2598.67 1124.53 2598.67 1126C2598.67 1127.6 2599.47 1129.6 2600.4 1130.4C2602.67 1132.8 2602.53 1166.67 2600.13 1174.67C2592.27 1200.27 2585.6 1213.47 2569.2 1235.6C2547.47 1264.93 2512.53 1294.13 2490.13 1301.73C2481.6 1304.67 2466.93 1304.67 2462.93 1301.87C2456.67 1297.6 2460.4 1280.93 2472.4 1259.33C2475.33 1254 2496.27 1225.6 2500.8 1220.67C2502.27 1219.2 2506.4 1214.13 2510 1209.47C2518.4 1198.67 2536.27 1176.93 2537.33 1176C2537.73 1175.6 2539.47 1173.47 2541.2 1171.33C2542.8 1169.07 2548 1163.07 2552.53 1158C2557.2 1152.8 2566.27 1142.67 2572.67 1135.33C2584.13 1122.27 2590.27 1116 2591.33 1116C2591.6 1116 2593.47 1117.6 2595.33 1119.6ZM1738 1452.67C1750.53 1458 1754.67 1460.27 1762.4 1466C1780.27 1479.47 1799.33 1508.27 1807.73 1534.53C1809.6 1540.13 1808 1542.8 1795.33 1555.07C1770.8 1578.93 1751.33 1592.13 1723.33 1603.87C1708.4 1610.13 1676.53 1612.67 1662 1608.8C1646.67 1604.8 1632.4 1594.53 1626.93 1583.73C1620.67 1571.07 1619.47 1565.47 1619.6 1548C1619.87 1533.2 1620.27 1530.13 1623.73 1520.67C1634.67 1490.4 1662 1463.2 1692.67 1452.27C1699.07 1449.87 1703.73 1449.47 1718.67 1450C1727.73 1450.27 1734.53 1451.2 1738 1452.67ZM1817.6 1572.8C1821.47 1587.33 1822.27 1663.73 1818.8 1674C1818 1676.13 1816.13 1683.73 1814.53 1690.67C1810.67 1708.13 1805.07 1724.27 1797.33 1740.4C1788.53 1758.13 1786.8 1761.07 1778.93 1771.73C1745.07 1816.93 1694.13 1828.93 1658.67 1800.13C1641.2 1786 1626.93 1765.47 1618.67 1742.67C1617.73 1740.13 1616.27 1736.13 1615.33 1734C1612.53 1726.93 1610.27 1719.47 1609.2 1714C1608.53 1711.07 1607.2 1704.13 1606 1698.67C1604.93 1693.2 1603.33 1682.67 1602.67 1675.33C1602 1668 1600.93 1655.73 1600.27 1648C1598.4 1628.67 1600.93 1594.67 1604.13 1594.67C1604.8 1594.67 1605.33 1595.2 1605.33 1595.87C1605.33 1596.53 1607.47 1599.2 1610 1601.73C1612.53 1604.27 1614.67 1606.8 1614.67 1607.33C1614.67 1611.2 1636 1625.47 1648 1629.6C1666.13 1635.87 1694.93 1635.73 1716.67 1629.2C1743.47 1621.2 1778.8 1599.47 1803.07 1575.87C1809.2 1569.87 1814.4 1565.87 1815.07 1566.53C1815.73 1567.2 1816.8 1570 1817.6 1572.8ZM1352.93 1916.4C1351.87 1918 1350.67 1921.07 1350.27 1923.33C1349.2 1929.33 1346.53 1938.8 1344.67 1943.33C1343.73 1945.47 1342.27 1949.47 1341.33 1952C1338.67 1959.47 1326 1986.53 1321.6 1994C1320.4 1996.27 1317.6 2001.07 1315.47 2004.67C1309.47 2014.93 1292.53 2038.13 1281.87 2050.67C1270.13 2064.4 1246.93 2087.2 1233.33 2098.27C1216.4 2112 1188.53 2128.93 1171.73 2135.87C1169.6 2136.67 1166.4 2138 1164.4 2138.8C1157.2 2141.73 1155.33 2142.4 1148.67 2144.13C1141.33 2146 1116.13 2146.67 1110.4 2144.93C1102.4 2142.8 1092 2129.87 1092 2122.27C1092 2114.13 1098.93 2098.13 1107.6 2086.8C1111.07 2082.13 1115.33 2076.27 1117.07 2073.73C1123.73 2064 1130.53 2065.73 1130.67 2077.33C1130.67 2083.73 1134 2099.87 1136.53 2105.07C1138.8 2110 1144.8 2112.53 1149.47 2110.53C1151.73 2109.73 1154.27 2107.73 1155.33 2106.13C1157.73 2102.93 1158 2092.4 1155.87 2087.07C1155.07 2085.07 1154 2080.67 1153.33 2077.33C1152.8 2074 1151.2 2068 1150 2064C1146 2051.07 1146 2047.73 1149.87 2044.13C1158 2036.4 1190.67 2014.67 1218 1998.67C1223.87 1995.33 1231.73 1990.27 1235.47 1987.6C1239.2 1984.93 1242.67 1982.67 1243.2 1982.67C1244.67 1982.67 1292.4 1949.87 1301.33 1942.53C1303.2 1941.07 1306.4 1938.53 1308.53 1936.93C1310.67 1935.33 1313.6 1932.93 1315.2 1931.6C1328 1920.67 1333.47 1915.73 1339.6 1909.6C1343.6 1905.87 1347.6 1902.67 1348.53 1902.67C1349.6 1902.67 1351.2 1901.73 1352.13 1900.4C1353.73 1898.53 1354 1899.2 1354.4 1905.87C1354.67 1910.93 1354.13 1914.67 1352.93 1916.4Z" fill="white"/>
<path d="M1080.67 804.533C1080 804.8 1076.27 806 1072.4 807.2C1056.8 812 1039.87 825.067 1028.53 840.8C1022.4 849.467 1010.67 872.533 1010.67 876.267C1010.67 877.467 1010.13 878.8 1009.47 879.2C1008.8 879.6 1008 881.333 1007.6 882.933C1007.2 884.667 1005.87 889.333 1004.67 893.333C996.133 921.733 992.4 959.467 994.667 994C996.8 1024.4 998.267 1038.93 999.867 1043.07C1000.67 1045.2 1001.33 1048.67 1001.33 1050.93C1001.33 1053.33 1001.87 1056.93 1002.53 1059.2C1003.33 1061.47 1004.8 1067.47 1006 1072.67C1007.2 1077.73 1008.67 1083.2 1009.2 1084.67C1009.87 1086.13 1012.53 1094.27 1015.2 1102.67C1018 1111.07 1021.33 1120.4 1022.67 1123.33C1024 1126.27 1026.53 1132 1028.27 1136C1053.33 1195.2 1107.73 1262.4 1164 1303.87C1170.27 1308.4 1177.07 1313.47 1179.07 1315.07C1181.2 1316.67 1185.33 1319.47 1188.4 1321.2C1191.47 1322.93 1196.4 1326 1199.33 1328C1207.73 1333.6 1247.47 1354.67 1249.87 1354.67C1250.27 1354.67 1253.2 1355.73 1256.4 1357.2C1259.47 1358.53 1265.6 1361.07 1270 1362.67C1274.4 1364.27 1279.2 1366.13 1280.67 1366.67C1284.27 1368.27 1295.6 1372 1301.07 1373.47C1303.33 1374.13 1307.6 1375.33 1310.4 1376C1325.73 1380.13 1351.73 1385.07 1368 1386.8C1412.27 1391.47 1460.93 1388.67 1498 1379.07C1502.4 1377.87 1508.13 1376.53 1510.67 1376C1516.8 1374.67 1532.27 1369.2 1537.6 1366.53C1538.93 1365.87 1540.8 1365.33 1542 1365.33C1543.07 1365.33 1547.07 1363.87 1550.93 1362.13C1554.8 1360.4 1561.07 1357.6 1564.67 1356C1575.87 1351.2 1599.73 1338.8 1608 1333.6C1612.27 1330.93 1619.2 1326.67 1623.2 1324.27C1631.87 1319.07 1669.47 1290.93 1680.13 1281.73C1684.13 1278.27 1691.07 1272.27 1695.33 1268.67C1721.87 1246.4 1777.2 1187.47 1801.33 1155.87C1803.2 1153.47 1805.33 1150.93 1806 1150C1809.87 1145.73 1818.53 1134.8 1820.8 1131.33C1822.13 1129.07 1824.67 1125.87 1826.27 1124C1828 1122.13 1829.33 1120 1829.33 1119.2C1829.33 1118.4 1830.67 1116.67 1832.13 1115.2C1835.07 1112.53 1870.67 1059.73 1870.67 1058C1870.67 1057.47 1872.67 1054.27 1875.2 1050.8C1877.73 1047.47 1882.13 1040.13 1885.07 1034.67C1888 1029.2 1891.87 1022 1893.6 1018.67C1911.47 986.133 1922.53 956.933 1926.67 931.333C1929.2 916 1927.07 891.6 1922.4 882.667C1916.53 871.467 1904.67 861.733 1892.53 858C1883.87 855.333 1854.67 855.333 1841.33 858C1804.4 865.2 1774.53 877.6 1704 915.067C1690.53 922.267 1676.27 929.333 1675.47 929.333C1675.07 929.333 1670.8 931.2 1665.87 933.467C1657.6 937.333 1645.87 941.867 1630 947.467C1626.4 948.667 1622.13 950.133 1620.67 950.8C1619.2 951.333 1616.53 952.133 1614.67 952.667C1612.8 953.067 1604.8 955.2 1596.67 957.333C1579.87 961.733 1558.8 965.733 1538.67 968.267C1517.2 970.933 1460.8 970.533 1439.33 967.6C1404.27 962.667 1374 954.667 1349.73 943.867C1346.53 942.533 1343.6 941.333 1343.2 941.333C1341.87 941.333 1304.27 922.267 1296.13 917.467C1292.13 915.067 1278.8 905.867 1266.4 896.933C1254 888 1241.6 879.2 1238.67 877.2C1235.87 875.333 1228.27 870 1221.87 865.2C1185.47 838.4 1149.87 818 1124 809.2C1113.33 805.6 1108.93 804.8 1096.67 804.533C1088.67 804.267 1081.47 804.267 1080.67 804.533ZM1118 824.8C1132 829.333 1156.8 841.733 1170.27 850.933C1173.33 852.933 1176.4 854.667 1177.2 854.667C1178 854.667 1178.67 855.2 1178.67 855.733C1178.67 856.267 1180.67 857.867 1183.07 859.2C1187.73 862 1219.47 884 1245.33 902.533C1285.2 931.2 1304.93 942.667 1342.8 959.733C1365.2 969.867 1399.73 979.2 1435.33 984.8C1455.6 988 1527.73 988.133 1546.67 984.933C1553.6 983.733 1563.2 982.133 1568 981.333C1594.4 976.933 1638.67 963.6 1663.33 952.667C1665.6 951.733 1670 949.867 1673.33 948.4C1676.67 947.067 1693.47 938.933 1710.67 930.133C1772.27 899.067 1785.47 892.8 1800 887.333C1803.33 886.133 1807.2 884.667 1808.67 884C1833.6 874 1869.2 869.333 1886.4 873.867C1900.93 877.733 1906.4 883.6 1910.67 900.4C1912.93 908.933 1910.27 935.467 1905.87 949.067C1904.13 954.4 1902.67 959.6 1902.67 960.533C1902.67 961.6 1901.87 964.133 1900.8 966.267C1899.73 968.267 1898.27 971.467 1897.6 973.333C1893.47 983.867 1884.93 1001.6 1880.67 1008.67C1878.8 1011.6 1876 1016.67 1874.27 1020C1872.53 1023.33 1869.2 1028.93 1866.93 1032.67C1864.67 1036.27 1861.47 1041.87 1859.87 1044.93C1858.27 1048.13 1856.4 1050.67 1855.73 1050.67C1855.2 1050.67 1854.67 1051.33 1854.67 1052.27C1854.67 1053.07 1853.2 1055.73 1851.33 1058.13C1849.47 1060.53 1848 1062.8 1848 1063.07C1848 1063.47 1845.6 1067.2 1842.67 1071.47C1839.6 1075.87 1836.27 1080.8 1835.07 1082.67C1832.53 1086.4 1812.67 1114 1806.93 1121.47C1804.93 1124.13 1802.4 1127.73 1801.33 1129.33C1800.27 1131.07 1796.93 1135.2 1794 1138.67C1791.07 1142.13 1785.07 1149.33 1780.67 1154.8C1754.13 1187.6 1700.4 1243.33 1675.33 1264C1668.8 1269.47 1662.13 1275.07 1660.67 1276.4C1648.27 1287.73 1611.6 1313.2 1592 1324.4C1571.07 1336.4 1539.47 1350.13 1520 1356C1514.53 1357.6 1508.53 1359.47 1506.67 1360C1503.47 1361.07 1497.6 1362.4 1485.07 1365.2C1478.93 1366.67 1468.4 1368.27 1452 1370.53C1419.33 1375.07 1365.73 1372.13 1332.67 1364.27C1329.73 1363.47 1324.27 1362.27 1320.53 1361.6C1304.93 1358.4 1263.87 1343.6 1243.33 1333.87C1220.4 1322.8 1200.67 1310.53 1172.8 1289.6C1158.27 1278.67 1132.13 1256 1126.13 1249.07C1124 1246.67 1119.47 1241.6 1116 1238C1108.53 1229.87 1091.07 1208.13 1081.87 1195.33C1068.67 1176.8 1055.6 1154.13 1045.6 1132C1042.4 1125.07 1039.2 1118.8 1038.53 1118.13C1037.87 1117.33 1037.33 1116 1037.33 1114.93C1037.33 1113.87 1036.53 1111.2 1035.47 1108.93C1028.53 1092.67 1019.2 1058.13 1016 1036C1009.6 991.867 1008.27 967.467 1011.33 948.4C1015.6 921.2 1017.2 912.667 1019.2 905.333C1020.27 901.333 1021.87 895.6 1022.67 892.667C1023.47 889.733 1024.67 886.133 1025.2 884.667C1025.87 883.2 1027.33 879.6 1028.67 876.667C1039.47 850.4 1056.27 831.333 1075.33 823.6C1084.27 820 1105.07 820.533 1118 824.8Z" fill="white"/>
</svg>
